SplineFontDB: 3.0
FontName: Aghja
FullName: Aghja
FamilyName: Aghja
Weight: Medium
Copyright: Copyright (c) 2014, Philippe Cochy with Reserved Font Name Aghja.\nAghja is a trademark registered at INPI in France.\nThis Font Software is licensed under the SIL Open Font License, Version 1.1.\nThis license is copied below, and is also available with a FAQ at:\nhttp://scripts.sil.org/OFL
FontLog: "2014-09-01: 1.0 - Creation+AAoA-2014-09-12: 1.1 - Finalisation latin de base et latin 1" 
Version: 1.1
ItalicAngle: 0
UnderlinePosition: -240
UnderlineWidth: 60
Ascent: 650
Descent: 350
LayerCount: 2
Layer: 0 0 "Arri+AOgA-re"  1
Layer: 1 0 "Avant"  0
XUID: [1021 911 371108665 3236849]
FSType: 0
OS2Version: 0
OS2_WeightWidthSlopeOnly: 0
OS2_UseTypoMetrics: 1
CreationTime: 1409522400
ModificationTime: 1410622687
PfmFamily: 33
TTFWeight: 500
TTFWidth: 5
LineGap: 90
VLineGap: 0
Panose: 2 8 6 15 6 6 4 2 4 2
OS2TypoAscent: 0
OS2TypoAOffset: 1
OS2TypoDescent: 0
OS2TypoDOffset: 1
OS2TypoLinegap: 90
OS2WinAscent: 0
OS2WinAOffset: 1
OS2WinDescent: 0
OS2WinDOffset: 1
HheadAscent: 0
HheadAOffset: 1
HheadDescent: 0
HheadDOffset: 1
OS2FamilyClass: 2564
OS2Vendor: 'PECI'
OS2UnicodeRanges: 00000001.10000000.00000000.00000000
Lookup: 2 8 0 "'ccmp' diacritics"  {"'ccmp' diacritics-1"  } ['ccmp' ('DFLT' <'dflt' > 'latn' <'dflt' > ) ]
Lookup: 5 8 0 "latn calt 1st pass"  {"latn calt 1st pass-1"  } ['calt' ('DFLT' <'dflt' > 'latn' <'dflt' > ) ]
Lookup: 5 8 0 "latn calt 2nd pass"  {"latn calt 2nd pass-1"  } ['calt' ('DFLT' <'dflt' > 'latn' <'dflt' > ) ]
Lookup: 1 0 0 "latn aalt I_"  {"latn aalt I_-1" ("I_" ) } ['aalt' ('DFLT' <'dflt' > 'latn' <'dflt' > ) ]
Lookup: 1 0 0 "latn aalt _I"  {"latn aalt _I-1" ("_I" ) } ['aalt' ('DFLT' <'dflt' > 'latn' <'dflt' > ) ]
Lookup: 1 0 0 "latn aalt IV"  {"latn aalt IV-1" ("IV" ) } ['aalt' ('DFLT' <'dflt' > 'latn' <'dflt' > ) ]
Lookup: 1 0 0 "latn aalt VI"  {"latn aalt VI-1" ("VI" ) } ['aalt' ('DFLT' <'dflt' > 'latn' <'dflt' > ) ]

StartChar: uniFFFD
Encoding: 65533 65533 1
Width: 400
VWidth: 0
Flags: HMW
LayerCount: 2
Fore
SplineSet
70 30 m 1
 270 30 l 1
 270 510 l 1
 203 510 137 510 70 510 c 1
 70 30 l 1
EndSplineSet
EndChar

StartChar: c.I_
Encoding: 57634 57634 7
Width: 380
VWidth: 0
Flags: HMW
AnchorPoint: "top" 180 360 basechar 0
LayerCount: 2
Fore
SplineSet
350 30 m 3
 306 30 190 30 180 30 c 3
 108 30 50 88 50 160 c 3
 50 232 108 290 180 290 c 3
 226 290 267 265 290 229 c 0
EndSplineSet
Substitution2: "latn aalt VI_-1" c.VI_
AlternateSubs2: "latn aalt _I_-1" c._I_
EndChar

StartChar: e.I_
Encoding: 57636 57636 8
Width: 360
VWidth: 0
Flags: HMW
AnchorPoint: "top" 170 360 basechar 0
LayerCount: 2
Fore
SplineSet
330 30 m 31
 279 30 251 30 200 30 c 19
 117 30 50 93 50 170 c 3
 50 236 104 290 170 290 c 3
 220 290 260 254 260 210 c 3
 260 156 203 130 150 130 c 27
 117 130 98 130 65 130 c 24
EndSplineSet
AlternateSubs2: "latn aalt _I_-1" e._I_
Substitution2: "latn aalt VI_-1" e.VI_
EndChar

StartChar: e._I
Encoding: 57668 57668 9
Width: 360
VWidth: 0
Flags: HMW
AnchorPoint: "top" 170 360 basechar 0
LayerCount: 2
Fore
SplineSet
260 30 m 27
 237 30 223 30 200 30 c 19
 117 30 50 93 50 170 c 3
 50 236 104 290 170 290 c 3
 220 290 260 254 260 210 c 3
 260 156 203 130 150 130 c 27
 117 130 98 130 65 130 c 24
68 93 m 1
 60 57 28 30 -10 30 c 0
EndSplineSet
AlternateSubs2: "latn aalt _I_-1" e._I_
EndChar

StartChar: b.I_
Encoding: 57633 57633 10
Width: 420
VWidth: 0
Flags: HMW
AnchorPoint: "top" 200 540 basechar 0
LayerCount: 2
Fore
SplineSet
390 30 m 3
 347 30 310 58 296 96 c 0
70 229 m 1
 93 265 134 290 180 290 c 3
 252 290 310 232 310 160 c 3
 310 88 252 30 180 30 c 3
 134 30 93 55 70 91 c 1
 70 101 70 500 70 510 c 3
EndSplineSet
Substitution2: "latn aalt VI_-1" b.VI_
AlternateSubs2: "latn aalt _I_-1" b._I_
EndChar

StartChar: g.I_
Encoding: 57638 57638 11
Width: 420
VWidth: 0
Flags: HMW
AnchorPoint: "top" 180 360 basechar 0
LayerCount: 2
Fore
SplineSet
390 30 m 3
 335 30 290 -15 290 -70 c 3
290 91 m 1
 267 55 226 30 180 30 c 3
 108 30 50 88 50 160 c 3
 50 232 108 290 180 290 c 3
 241 290 290 241 290 180 c 11
 290 51 290 -130 290 -150 c 3
 290 -211 241 -260 180 -260 c 3
 150 -260 123 -249 100 -226 c 0
EndSplineSet
Substitution2: "latn aalt VI_-1" g.VI_
AlternateSubs2: "latn aalt _I_-1" g._I_
EndChar

StartChar: b._I
Encoding: 57665 57665 12
Width: 420
VWidth: 0
Flags: HMW
AnchorPoint: "top" 200 540 basechar 0
LayerCount: 2
Fore
SplineSet
70 229 m 1
 93 265 134 290 180 290 c 3
 252 290 310 232 310 160 c 3
 310 88 252 30 180 30 c 3
 134 30 93 55 70 91 c 1
 70 101 70 500 70 510 c 3
70 130 m 3
 70 75 25 30 -30 30 c 3
EndSplineSet
AlternateSubs2: "latn aalt _I_-1" b._I_
EndChar

StartChar: c._I
Encoding: 57666 57666 13
Width: 380
VWidth: 0
Flags: HMW
AnchorPoint: "top" 180 360 basechar 0
LayerCount: 2
Fore
SplineSet
-30 30 m 3
 13 30 50 58 64 96 c 0
290 91 m 0
 267 55 226 30 180 30 c 3
 108 30 50 88 50 160 c 3
 50 232 108 290 180 290 c 3
 226 290 267 265 290 229 c 0
EndSplineSet
AlternateSubs2: "latn aalt _I_-1" c._I_
EndChar

StartChar: g._I
Encoding: 57670 57670 14
Width: 420
VWidth: 0
Flags: HMW
AnchorPoint: "top" 180 360 basechar 0
LayerCount: 2
Fore
SplineSet
-30 30 m 3
 13 30 50 58 64 96 c 0
290 91 m 1
 267 55 226 30 180 30 c 3
 108 30 50 88 50 160 c 3
 50 232 108 290 180 290 c 3
 241 290 290 241 290 180 c 11
 290 51 290 -130 290 -150 c 3
 290 -211 241 -260 180 -260 c 3
 150 -260 123 -249 100 -226 c 0
EndSplineSet
AlternateSubs2: "latn aalt _I_-1" g._I_
EndChar

StartChar: a._I_
Encoding: 57696 57696 15
Width: 420
VWidth: 0
Flags: HMW
AnchorPoint: "top" 180 360 basechar 0
LayerCount: 2
Fore
SplineSet
-30 30 m 3
 13 30 50 58 64 96 c 0
290 260 m 27
 290 194 290 111 290 91 c 1
 267 55 226 30 180 30 c 3
 108 30 50 88 50 160 c 3
 50 232 108 290 180 290 c 3
 226 290 267 265 290 229 c 1
390 30 m 3
 335 30 290 75 290 130 c 3
EndSplineSet
EndChar

StartChar: b._I_
Encoding: 57697 57697 16
Width: 420
VWidth: 0
Flags: HMW
AnchorPoint: "top" 200 540 basechar 0
LayerCount: 2
Fore
SplineSet
390 30 m 3
 347 30 310 58 296 96 c 0
70 229 m 1
 93 265 134 290 180 290 c 3
 252 290 310 232 310 160 c 3
 310 88 252 30 180 30 c 3
 134 30 93 55 70 91 c 1
 70 101 70 500 70 510 c 3
70 130 m 0
 70 75 25 30 -30 30 c 0
EndSplineSet
EndChar

StartChar: c._I_
Encoding: 57698 57698 17
Width: 380
VWidth: 0
Flags: HMW
AnchorPoint: "top" 180 360 basechar 0
LayerCount: 2
Fore
SplineSet
-30 30 m 3
 13 30 50 58 64 96 c 0
350 30 m 3
 306 30 190 30 180 30 c 3
 108 30 50 88 50 160 c 3
 50 232 108 290 180 290 c 3
 226 290 267 265 290 229 c 0
EndSplineSet
EndChar

StartChar: d._I_
Encoding: 57699 57699 18
Width: 420
VWidth: 0
Flags: HMW
AnchorPoint: "top" 160 540 basechar 0
LayerCount: 2
Fore
SplineSet
290 510 m 3
 290 130 l 3
 290 75 335 30 390 30 c 3
290 91 m 0
 267 55 226 30 180 30 c 3
 108 30 50 88 50 160 c 3
 50 232 108 290 180 290 c 3
 226 290 267 265 290 229 c 0
-30 30 m 3
 13 30 50 58 64 96 c 0
EndSplineSet
EndChar

StartChar: e._I_
Encoding: 57700 57700 19
Width: 360
VWidth: 0
Flags: HMW
AnchorPoint: "top" 170 360 basechar 0
LayerCount: 2
Fore
SplineSet
330 30 m 27
 279 30 251 30 200 30 c 19
 117 30 50 93 50 170 c 3
 50 236 104 290 170 290 c 3
 220 290 260 254 260 210 c 3
 260 156 203 130 150 130 c 27
 117 130 98 130 65 130 c 24
68 93 m 1
 60 57 28 30 -10 30 c 0
EndSplineSet
EndChar

StartChar: f._I_
Encoding: 57701 57701 20
Width: 350
VWidth: 0
Flags: HMW
AnchorPoint: "top" 190 540 basechar 0
LayerCount: 2
Fore
SplineSet
-30 30 m 3
 -10 30 -20 30 -10 30 c 3
 45 30 90 75 90 130 c 3
90 -260 m 3
 90 -250 90 400 90 410 c 3
 90 465 135 510 190 510 c 3
 217 510 242 498 260 480 c 0
320 30 m 3
 310 30 210 30 190 30 c 3
 135 30 90 -15 90 -70 c 0
EndSplineSet
EndChar

StartChar: g._I_
Encoding: 57702 57702 21
Width: 420
VWidth: 0
Flags: HMW
AnchorPoint: "top" 180 360 basechar 0
LayerCount: 2
Fore
SplineSet
390 30 m 3
 335 30 290 -15 290 -70 c 3
290 91 m 1
 267 55 226 30 180 30 c 3
 108 30 50 88 50 160 c 3
 50 232 108 290 180 290 c 3
 241 290 290 241 290 180 c 11
 290 51 290 -130 290 -150 c 3
 290 -211 241 -260 180 -260 c 3
 150 -260 123 -249 100 -226 c 0
-30 30 m 3
 13 30 50 58 64 96 c 0
EndSplineSet
EndChar

StartChar: h._I_
Encoding: 57703 57703 24
Width: 420
VWidth: 0
Flags: HMW
AnchorPoint: "top" 200 540 basechar 0
LayerCount: 2
Fore
SplineSet
390 30 m 3
 335 30 290 75 290 130 c 3
 290 180 l 3
 290 241 241 290 180 290 c 3
 119 290 70 241 70 180 c 11
70 30 m 27
 70 217 70 500 70 510 c 0
70 130 m 3
 70 75 25 30 -30 30 c 3
EndSplineSet
EndChar

StartChar: dotlessi.I_
Encoding: 57640 57640 26
Width: 280
VWidth: 0
Flags: HMW
AnchorPoint: "top" 110 360 basechar 0
LayerCount: 2
Fore
SplineSet
250 30 m 27
 234 30 230 30 210 30 c 3
 155 30 110 75 110 130 c 0
 110 140 110 280 110 290 c 0
EndSplineSet
Substitution2: "latn aalt VI_-1" dotlessi.VI_
AlternateSubs2: "latn aalt _I_-1" dotlessi._I_
EndChar

StartChar: dotlessi._I_
Encoding: 57704 57704 27
Width: 280
VWidth: 0
Flags: HMW
AnchorPoint: "top" 110 360 basechar 0
LayerCount: 2
Fore
SplineSet
250 30 m 27
 234 30 230 30 210 30 c 3
 155 30 110 75 110 130 c 0
 110 140 110 280 110 290 c 3
-30 30 m 3
 -10 30 0 30 10 30 c 3
 65 30 110 75 110 130 c 0
EndSplineSet
EndChar

StartChar: dotlessi._I
Encoding: 57672 57672 28
Width: 280
VWidth: 0
Flags: HMW
AnchorPoint: "top" 110 360 basechar 0
LayerCount: 2
Fore
SplineSet
110 290 m 3
 110 280 110 40 110 30 c 0
-30 30 m 3
 -10 30 0 30 10 30 c 3
 65 30 110 75 110 130 c 0
EndSplineSet
AlternateSubs2: "latn aalt _I_-1" dotlessi._I_
EndChar

StartChar: period
Encoding: 46 46 30
Width: 210
VWidth: 0
Flags: HMW
LayerCount: 2
Fore
SplineSet
90 30 m 0,0,1
EndSplineSet
EndChar

StartChar: dotlessj.I_
Encoding: 57641 57641 74
Width: 270
VWidth: 0
Flags: HMW
AnchorPoint: "top" 140 360 basechar 0
LayerCount: 2
Fore
SplineSet
140 290 m 27
 140 118 140 -130 140 -150 c 3
 140 -211 91 -260 30 -260 c 0
240 30 m 3
 185 30 140 -15 140 -70 c 0
EndSplineSet
Substitution2: "latn aalt VI_-1" dotlessj.VI_
AlternateSubs2: "latn aalt _I_-1" dotlessj._I_
EndChar

StartChar: dotlessj._I
Encoding: 57673 57673 75
Width: 270
VWidth: 0
Flags: HMW
AnchorPoint: "top" 140 360 basechar 0
LayerCount: 2
Fore
SplineSet
140 290 m 27
 140 118 140 -130 140 -150 c 3
 140 -211 91 -260 30 -260 c 0
140 130 m 3
 140 75 95 30 40 30 c 3
 30 30 -10 30 -30 30 c 3
EndSplineSet
AlternateSubs2: "latn aalt _I_-1" dotlessj._I_
EndChar

StartChar: dotlessj._I_
Encoding: 57705 57705 76
Width: 270
VWidth: 0
Flags: HMW
AnchorPoint: "top" 140 360 basechar 0
LayerCount: 2
Fore
SplineSet
140 290 m 27
 140 118 140 -130 140 -150 c 3
 140 -211 91 -260 30 -260 c 0
240 30 m 3
 185 30 140 -15 140 -70 c 0
140 130 m 3
 140 75 95 30 40 30 c 3
 30 30 -10 30 -30 30 c 0
EndSplineSet
EndChar

StartChar: k._I_
Encoding: 57706 57706 77
Width: 410
VWidth: 0
Flags: HMW
AnchorPoint: "top" 205 540 basechar 0
LayerCount: 2
Fore
SplineSet
70 130 m 3
 70 75 25 30 -30 30 c 3
380 30 m 0
 312 30 249 98 200 210 c 0
70 30 m 3
 70 40 70 500 70 510 c 0
70 140 m 0
 100 160 270 270 300 290 c 0
EndSplineSet
EndChar

StartChar: l._I_
Encoding: 57707 57707 78
Width: 300
VWidth: 0
Flags: HMW
AnchorPoint: "top" 170 540 basechar 0
LayerCount: 2
Fore
SplineSet
270 30 m 27
 239 30 210 30 190 30 c 3
 135 30 90 75 90 130 c 3
 90 140 90 400 90 410 c 3
 90 465 135 510 190 510 c 0
-30 30 m 3
 -10 30 -20 30 -10 30 c 3
 45 30 90 75 90 130 c 0
EndSplineSet
EndChar

StartChar: m._I_
Encoding: 57708 57708 79
Width: 640
VWidth: 0
Flags: HMW
AnchorPoint: "top" 290 360 basechar 0
LayerCount: 2
Fore
SplineSet
290 170 m 3
 290 236 344 290 410 290 c 3
 465 290 510 245 510 190 c 11
 510 167 510 150 510 130 c 3
 510 75 555 30 610 30 c 3
290 30 m 0
 290 50 290 128 290 190 c 19
 290 245 245 290 190 290 c 3
 124 290 70 236 70 170 c 3
 70 160 70 140 70 130 c 3
 70 75 25 30 -30 30 c 3
EndSplineSet
EndChar

StartChar: n._I_
Encoding: 57709 57709 80
Width: 420
VWidth: 0
Flags: HMW
AnchorPoint: "top" 190 360 basechar 0
LayerCount: 2
Fore
SplineSet
70 130 m 3
 70 75 25 30 -30 30 c 3
390 30 m 3
 335 30 290 75 290 130 c 3
 290 150 290 167 290 190 c 19
 290 245 245 290 190 290 c 3
 124 290 70 236 70 170 c 3
70 30 m 3
 70 50 70 216 70 290 c 0
EndSplineSet
EndChar

StartChar: o._I
Encoding: 57678 57678 81
Width: 420
VWidth: 0
Flags: HMW
AnchorPoint: "top" 180 360 basechar 0
LayerCount: 2
Fore
SplineSet
-30 30 m 3
 13 30 50 58 64 96 c 0
50 160 m 3
 50 232 108 290 180 290 c 3
 252 290 310 232 310 160 c 3
 310 88 252 30 180 30 c 3
 108 30 50 88 50 160 c 3
EndSplineSet
Substitution2: "latn aalt _IV-1" o._IV
EndChar

StartChar: o.VI
Encoding: 57742 57742 82
Width: 420
VWidth: 0
Flags: HMW
AnchorPoint: "top" 180 360 basechar 0
LayerCount: 2
Fore
SplineSet
-30 290 m 0
 -20 290 130 290 180 290 c 3
50 160 m 3
 50 232 108 290 180 290 c 3
 252 290 310 232 310 160 c 3
 310 88 252 30 180 30 c 3
 108 30 50 88 50 160 c 3
EndSplineSet
Substitution2: "latn aalt VIV-1" o.VIV
EndChar

StartChar: o.VIV
Encoding: 57774 57774 83
Width: 420
VWidth: 0
Flags: HMW
AnchorPoint: "top" 180 360 basechar 0
LayerCount: 2
Fore
SplineSet
-30 290 m 3
 -10 290 380 290 390 290 c 3
50 160 m 3
 50 232 108 290 180 290 c 3
 252 290 310 232 310 160 c 3
 310 88 252 30 180 30 c 3
 108 30 50 88 50 160 c 3
EndSplineSet
EndChar

StartChar: b.VI_
Encoding: 57761 57761 84
Width: 420
VWidth: 0
Flags: HMW
AnchorPoint: "top" 200 540 basechar 0
LayerCount: 2
Fore
SplineSet
390 30 m 3
 347 30 310 58 296 96 c 0
70 390 m 27
 70 335 25 290 -30 290 c 3
70 229 m 1
 93 265 134 290 180 290 c 3
 252 290 310 232 310 160 c 3
 310 88 252 30 180 30 c 3
 134 30 93 55 70 91 c 1
 70 101 70 500 70 510 c 3
EndSplineSet
EndChar

StartChar: c.VI_
Encoding: 57762 57762 85
Width: 380
VWidth: 0
Flags: HMW
AnchorPoint: "top" 180 360 basechar 0
LayerCount: 2
Fore
SplineSet
350 30 m 3
 306 30 190 30 180 30 c 3
 108 30 50 88 50 160 c 3
 50 232 108 290 180 290 c 3
 226 290 267 265 290 229 c 0
-30 290 m 3
 -10 290 160 290 180 290 c 0
EndSplineSet
EndChar

StartChar: p.I_
Encoding: 57647 57647 86
Width: 420
VWidth: 0
Flags: HMW
AnchorPoint: "top" 180 360 basechar 0
LayerCount: 2
Fore
SplineSet
390 30 m 3
 347 30 310 58 296 96 c 0
70 -260 m 3
 70 -250 70 280 70 290 c 0
70 229 m 1
 93 265 134 290 180 290 c 3
 252 290 310 232 310 160 c 3
 310 88 252 30 180 30 c 3
 134 30 93 55 70 91 c 1
EndSplineSet
Substitution2: "latn aalt VI_-1" p.VI_
AlternateSubs2: "latn aalt _I_-1" p._I_
EndChar

StartChar: p._I
Encoding: 57679 57679 87
Width: 420
VWidth: 0
Flags: HMW
AnchorPoint: "top" 180 360 basechar 0
LayerCount: 2
Fore
SplineSet
70 130 m 3
 70 75 25 30 -30 30 c 3
70 -260 m 3
 70 -250 70 280 70 290 c 0
70 229 m 1
 93 265 134 290 180 290 c 3
 252 290 310 232 310 160 c 3
 310 88 252 30 180 30 c 3
 134 30 93 55 70 91 c 1
EndSplineSet
AlternateSubs2: "latn aalt _I_-1" p._I_
EndChar

StartChar: p._I_
Encoding: 57711 57711 88
Width: 420
VWidth: 0
Flags: HMW
AnchorPoint: "top" 180 360 basechar 0
LayerCount: 2
Fore
SplineSet
70 130 m 3
 70 75 25 30 -30 30 c 3
390 30 m 3
 347 30 310 58 296 96 c 0
70 -260 m 3
 70 -250 70 280 70 290 c 0
70 229 m 1
 93 265 134 290 180 290 c 3
 252 290 310 232 310 160 c 3
 310 88 252 30 180 30 c 3
 134 30 93 55 70 91 c 1
EndSplineSet
EndChar

StartChar: p.VI_
Encoding: 57775 57775 89
Width: 420
VWidth: 0
Flags: HMW
AnchorPoint: "top" 180 360 basechar 0
LayerCount: 2
Fore
SplineSet
390 30 m 3
 347 30 310 58 296 96 c 0
-30 290 m 3
 -10 290 50 290 70 290 c 1
 70 280 70 -250 70 -260 c 3
70 229 m 1
 93 265 134 290 180 290 c 3
 252 290 310 232 310 160 c 3
 310 88 252 30 180 30 c 3
 134 30 93 55 70 91 c 1
EndSplineSet
EndChar

StartChar: r._I_
Encoding: 57713 57713 90
Width: 410
VWidth: 10
Flags: HMW
AnchorPoint: "top" 175 360 basechar 0
LayerCount: 2
Fore
SplineSet
380 30 m 3
 308 30 250 88 250 160 c 3
 250 207 261 251 280 290 c 9
 70 290 l 1
 70 280 70 140 70 130 c 0
 70 75 25 30 -30 30 c 3
EndSplineSet
EndChar

StartChar: g.VI_
Encoding: 57766 57766 91
Width: 420
VWidth: 0
Flags: HMW
AnchorPoint: "top" 180 360 basechar 0
LayerCount: 2
Fore
SplineSet
390 30 m 3
 335 30 290 -15 290 -70 c 3
290 91 m 1
 267 55 226 30 180 30 c 3
 108 30 50 88 50 160 c 3
 50 232 108 290 180 290 c 3
 241 290 290 241 290 180 c 11
 290 51 290 -130 290 -150 c 3
 290 -211 241 -260 180 -260 c 3
 150 -260 123 -249 100 -226 c 0
-30 290 m 3
 -10 290 98 290 180 290 c 27
EndSplineSet
EndChar

StartChar: q.I_
Encoding: 57648 57648 92
Width: 420
VWidth: 0
Flags: HMW
AnchorPoint: "top" 180 360 basechar 0
LayerCount: 2
Fore
SplineSet
290 130 m 3
 290 75 335 30 390 30 c 3
290 -260 m 3
 290 -240 290 57 290 260 c 24
290 229 m 1
 267 265 226 290 180 290 c 3
 108 290 50 232 50 160 c 3
 50 88 108 30 180 30 c 3
 226 30 267 55 290 91 c 1
EndSplineSet
AlternateSubs2: "latn aalt _I_-1" q._I_
EndChar

StartChar: q._I
Encoding: 57680 57680 93
Width: 420
VWidth: 0
Flags: HMW
AnchorPoint: "top" 180 360 basechar 0
LayerCount: 2
Fore
SplineSet
-30 30 m 3
 13 30 50 58 64 96 c 0
290 -260 m 3
 290 -240 290 57 290 260 c 24
290 229 m 1
 267 265 226 290 180 290 c 3
 108 290 50 232 50 160 c 3
 50 88 108 30 180 30 c 3
 226 30 267 55 290 91 c 1
EndSplineSet
Substitution2: "latn aalt VI_-1" q.VI_
AlternateSubs2: "latn aalt _I_-1" q._I_
EndChar

StartChar: q._I_
Encoding: 57712 57712 94
Width: 420
VWidth: 0
Flags: HMW
AnchorPoint: "top" 180 360 basechar 0
LayerCount: 2
Fore
SplineSet
-30 30 m 3
 13 30 50 58 64 96 c 0
290 130 m 3
 290 75 335 30 390 30 c 3
290 -260 m 3
 290 -240 290 57 290 260 c 24
290 229 m 1
 267 265 226 290 180 290 c 3
 108 290 50 232 50 160 c 3
 50 88 108 30 180 30 c 3
 226 30 267 55 290 91 c 1
EndSplineSet
EndChar

StartChar: q.VI_
Encoding: 57776 57776 95
Width: 420
VWidth: 0
Flags: HMW
AnchorPoint: "top" 180 360 basechar 0
LayerCount: 2
Fore
SplineSet
290 130 m 3
 290 75 335 30 390 30 c 3
-30 290 m 3
 -10 290 160 290 180 290 c 3
290 260 m 3
 290 250 290 -240 290 -260 c 3
290 91 m 1
 267 55 226 30 180 30 c 3
 108 30 50 88 50 160 c 3
 50 232 108 290 180 290 c 3
 226 290 267 265 290 229 c 1
EndSplineSet
EndChar

StartChar: s.I_
Encoding: 57650 57650 104
Width: 490
VWidth: 0
Flags: HMW
AnchorPoint: "top" 250 360 basechar 0
LayerCount: 2
Fore
SplineSet
460 30 m 3
 417 30 380 58 366 96 c 0
180 50 m 0
 200 37 224 30 250 30 c 3
 322 30 380 88 380 160 c 3
 380 232 322 290 250 290 c 1
 228 264 52 56 30 30 c 0
EndSplineSet
Substitution2: "latn aalt VI_-1" s.VI_
AlternateSubs2: "latn aalt _I_-1" s._I_
EndChar

StartChar: s._I
Encoding: 57682 57682 105
Width: 490
VWidth: 0
Flags: HMW
AnchorPoint: "top" 250 360 basechar 0
LayerCount: 2
Fore
SplineSet
-30 30 m 3
 14 30 48 51 70 77 c 0
 250 290 l 1
 322 290 380 232 380 160 c 3
 380 88 322 30 250 30 c 3
 224 30 200 37 180 50 c 0
EndSplineSet
AlternateSubs2: "latn aalt _I_-1" s._I_
EndChar

StartChar: s._I_
Encoding: 57714 57714 106
Width: 490
VWidth: 0
Flags: HMW
AnchorPoint: "top" 250 360 basechar 0
LayerCount: 2
Fore
SplineSet
460 30 m 3
 417 30 380 58 366 96 c 0
-30 30 m 3
 14 30 48 51 70 77 c 0
 250 290 l 1
 322 290 380 232 380 160 c 3
 380 88 322 30 250 30 c 3
 224 30 200 37 180 50 c 0
EndSplineSet
EndChar

StartChar: s.VI_
Encoding: 57778 57778 107
Width: 490
VWidth: 0
Flags: HMW
AnchorPoint: "top" 250 360 basechar 0
LayerCount: 2
Fore
SplineSet
460 30 m 3
 417 30 380 58 366 96 c 0
-30 290 m 3
 20 290 200 290 250 290 c 3
 322 290 380 232 380 160 c 3
 380 88 322 30 250 30 c 3
 224 30 200 37 180 50 c 0
EndSplineSet
EndChar

StartChar: t._I_
Encoding: 57715 57715 108
Width: 350
VWidth: 0
Flags: HMW
AnchorPoint: "top" 185 540 basechar 0
LayerCount: 2
Fore
SplineSet
50 290 m 3
 70 290 230 290 240 290 c 9
-30 30 m 3
 -10 30 -20 30 -10 30 c 3
 45 30 90 75 90 130 c 11
 90 510 l 3
90 160 m 3
 90 88 148 30 220 30 c 3
 230 30 310 30 320 30 c 3
EndSplineSet
EndChar

StartChar: u._I_
Encoding: 57716 57716 109
Width: 420
VWidth: 0
Flags: HMW
AnchorPoint: "top" 180 360 basechar 0
LayerCount: 2
Fore
SplineSet
290 290 m 27
 290 130 l 3
 290 75 335 30 390 30 c 3
290 140 m 19
 290 79 241 30 180 30 c 3
 119 30 70 79 70 140 c 11
 70 198 70 270 70 290 c 0
70 130 m 3
 70 75 25 30 -30 30 c 3
EndSplineSet
EndChar

StartChar: y.VI_
Encoding: 57784 57784 110
Width: 420
VWidth: 0
Flags: HMW
AnchorPoint: "top" 180 360 basechar 0
LayerCount: 2
Fore
SplineSet
390 30 m 3
 335 30 290 -15 290 -70 c 3
290 290 m 27
 290 118 290 -130 290 -150 c 3
 290 -211 241 -260 180 -260 c 3
 150 -260 123 -249 100 -226 c 1
-30 290 m 3
 -10 290 50 290 70 290 c 1
 70 270 70 198 70 140 c 19
 70 79 119 30 180 30 c 3
 226 30 267 55 290 91 c 0
EndSplineSet
EndChar

StartChar: y.I_
Encoding: 57656 57656 111
Width: 420
VWidth: 0
Flags: HMW
AnchorPoint: "top" 180 360 basechar 0
LayerCount: 2
Fore
SplineSet
390 30 m 3
 335 30 290 -15 290 -70 c 3
290 290 m 27
 290 118 290 -130 290 -150 c 3
 290 -211 241 -260 180 -260 c 3
 150 -260 123 -249 100 -226 c 1
70 290 m 3
 70 270 70 198 70 140 c 19
 70 79 119 30 180 30 c 3
 226 30 267 55 290 91 c 0
EndSplineSet
AlternateSubs2: "latn aalt _I_-1" y._I_
Substitution2: "latn aalt VI_-1" y.VI_
EndChar

StartChar: y._I_
Encoding: 57720 57720 112
Width: 420
VWidth: 0
Flags: HMW
AnchorPoint: "top" 180 360 basechar 0
LayerCount: 2
Fore
SplineSet
70 130 m 3
 70 75 25 30 -30 30 c 3
390 30 m 3
 335 30 290 -15 290 -70 c 3
290 290 m 27
 290 118 290 -130 290 -150 c 3
 290 -211 241 -260 180 -260 c 3
 150 -260 123 -249 100 -226 c 1
70 290 m 3
 70 270 70 198 70 140 c 19
 70 79 119 30 180 30 c 3
 226 30 267 55 290 91 c 0
EndSplineSet
EndChar

StartChar: y._I
Encoding: 57688 57688 113
Width: 420
VWidth: 0
Flags: HMW
AnchorPoint: "top" 180 360 basechar 0
LayerCount: 2
Fore
SplineSet
70 130 m 3
 70 75 25 30 -30 30 c 3
290 290 m 27
 290 118 290 -130 290 -150 c 3
 290 -211 241 -260 180 -260 c 3
 150 -260 123 -249 100 -226 c 1
70 290 m 3
 70 270 70 198 70 140 c 19
 70 79 119 30 180 30 c 3
 226 30 267 55 290 91 c 0
EndSplineSet
AlternateSubs2: "latn aalt _I_-1" y._I_
EndChar

StartChar: v.VI
Encoding: 57749 57749 114
Width: 420
VWidth: 0
Flags: HMW
AnchorPoint: "top" 180 360 basechar 0
LayerCount: 2
Fore
SplineSet
-30 290 m 27
 1 290 19 290 50 290 c 17
 60 270 170 50 180 30 c 1
 190 50 300 270 310 290 c 0
EndSplineSet
Substitution2: "latn aalt VIV-1" v.VIV
EndChar

StartChar: v.VIV
Encoding: 57781 57781 115
Width: 420
VWidth: 0
Flags: HMW
AnchorPoint: "top" 180 360 basechar 0
LayerCount: 2
Fore
SplineSet
390 290 m 3
 380 290 392 290 372 290 c 3
 333 290 298 267 282 234 c 0
 180 30 l 1
 170 50 60 270 50 290 c 1
 40 290 -20 290 -30 290 c 11
EndSplineSet
EndChar

StartChar: w.VI
Encoding: 57750 57750 116
Width: 600
VWidth: 0
Flags: HMW
AnchorPoint: "top" 270 360 basechar 0
LayerCount: 2
Fore
SplineSet
-30 290 m 27
 50 290 l 17
 60 270 170 50 180 30 c 1
 270 208 l 1
 360 30 l 1
 370 50 480 270 490 290 c 0
EndSplineSet
Substitution2: "latn aalt VIV-1" w.VIV
EndChar

StartChar: w.VIV
Encoding: 57782 57782 117
Width: 600
VWidth: 0
Flags: HMW
AnchorPoint: "top" 270 360 basechar 0
LayerCount: 2
Fore
SplineSet
-30 290 m 3
 50 290 l 17
 60 270 170 50 180 30 c 1
 270 208 l 1
 360 30 l 1
 462 234 l 0
 478 267 513 290 552 290 c 3
 572 290 560 290 570 290 c 3
EndSplineSet
EndChar

StartChar: x._I
Encoding: 57687 57687 118
Width: 420
VWidth: 0
Flags: HMW
AnchorPoint: "top" 180 360 basechar 0
LayerCount: 2
Fore
SplineSet
-30 30 m 3
 -20 30 -12 30 8 30 c 3
 36 30 61 41 79 59 c 0
 310 290 l 0
50 290 m 0
 60 280 300 40 310 30 c 0
EndSplineSet
Substitution2: "latn aalt _I_-1" x._I_
EndChar

StartChar: x.VI_
Encoding: 57783 57783 119
Width: 420
VWidth: 0
Flags: HMW
AnchorPoint: "top" 180 360 basechar 0
LayerCount: 2
Fore
SplineSet
-30 290 m 3
 50 290 l 25
 281 59 l 0
 299 41 324 30 352 30 c 3
 372 30 380 30 390 30 c 3
50 30 m 0
 60 40 300 280 310 290 c 0
EndSplineSet
EndChar

StartChar: z.I_
Encoding: 57657 57657 120
Width: 420
VWidth: 0
Flags: HMW
AnchorPoint: "top" 170 360 basechar 0
LayerCount: 2
Fore
SplineSet
390 30 m 3
 335 30 290 -15 290 -70 c 0
50 290 m 3
 60 290 280 290 290 290 c 1
 279 264 191 56 180 30 c 1
 241 30 290 -19 290 -80 c 11
 290 -107 290 -130 290 -150 c 3
 290 -211 241 -260 180 -260 c 3
 150 -260 123 -249 100 -226 c 0
EndSplineSet
Substitution2: "latn aalt VI_-1" z.VI_
AlternateSubs2: "latn aalt _I_-1" z._I_
EndChar

StartChar: z._I
Encoding: 57689 57689 121
Width: 420
VWidth: 0
Flags: HMW
AnchorPoint: "top" 170 360 basechar 0
LayerCount: 2
Fore
SplineSet
-30 30 m 3
 25 30 70 75 70 130 c 3
 70 290 l 1
 80 290 280 290 290 290 c 1
 279 264 191 56 180 30 c 1
 241 30 290 -19 290 -80 c 11
 290 -107 290 -130 290 -150 c 3
 290 -211 241 -260 180 -260 c 3
 150 -260 123 -249 100 -226 c 1
EndSplineSet
AlternateSubs2: "latn aalt _I_-1" z._I_
EndChar

StartChar: z._I_
Encoding: 57721 57721 122
Width: 420
VWidth: 0
Flags: HMW
AnchorPoint: "top" 170 360 basechar 0
LayerCount: 2
Fore
SplineSet
-30 30 m 3
 25 30 70 75 70 130 c 3
 70 290 l 1
 80 290 280 290 290 290 c 1
 279 264 191 56 180 30 c 1
 241 30 290 -19 290 -80 c 11
 290 -107 290 -130 290 -150 c 3
 290 -211 241 -260 180 -260 c 3
 150 -260 123 -249 100 -226 c 1
390 30 m 3
 335 30 290 -15 290 -70 c 0
EndSplineSet
EndChar

StartChar: z.VI_
Encoding: 57785 57785 123
Width: 420
VWidth: 0
Flags: HMW
AnchorPoint: "top" 170 360 basechar 0
LayerCount: 2
Fore
SplineSet
390 30 m 3
 335 30 290 -15 290 -70 c 0
-20 290 m 3
 -10 290 280 290 290 290 c 1
 279 264 191 56 180 30 c 1
 241 30 290 -19 290 -80 c 11
 290 -107 290 -130 290 -150 c 3
 290 -211 241 -260 180 -260 c 3
 150 -260 123 -249 100 -226 c 0
EndSplineSet
EndChar

StartChar: exclam
Encoding: 33 33 124
Width: 210
VWidth: 0
Flags: HMW
LayerCount: 2
Fore
SplineSet
90 140 m 3
 90 150 90 500 90 510 c 0
90 30 m 0
EndSplineSet
EndChar

StartChar: quotedbl
Encoding: 34 34 125
Width: 330
VWidth: 0
Flags: HMW
LayerCount: 2
Fore
SplineSet
210 580 m 3
 210 570 210 410 210 400 c 0
90 580 m 3
 90 570 90 410 90 400 c 0
EndSplineSet
EndChar

StartChar: quotesingle
Encoding: 39 39 126
Width: 210
VWidth: 0
Flags: HMW
LayerCount: 2
Fore
SplineSet
90 580 m 3
 90 570 90 410 90 400 c 0
EndSplineSet
EndChar

StartChar: numbersign
Encoding: 35 35 127
Width: 420
VWidth: 0
Flags: HMW
LayerCount: 2
Fore
SplineSet
50 90 m 3
 60 90 300 90 310 90 c 0
250 290 m 0
 250 280 250 40 250 30 c 0
50 230 m 3
 60 230 300 230 310 230 c 0
110 290 m 0
 110 280 110 40 110 30 c 0
EndSplineSet
EndChar

StartChar: dollar
Encoding: 36 36 128
Width: 410
VWidth: 0
Flags: HMW
LayerCount: 2
Fore
SplineSet
170 586 m 0
 170 -50 l 0
50 110 m 0
 50 110 80 30 170 30 c 3
 242 30 300 88 300 160 c 3
 300 232 242 290 170 290 c 3
 109 290 60 339 60 400 c 3
 60 461 109 510 170 510 c 3
 237 510 265 455 265 455 c 0
EndSplineSet
EndChar

StartChar: percent
Encoding: 37 37 129
Width: 640
VWidth: 10
Flags: HMW
LayerCount: 2
Fore
SplineSet
50 430 m 3
 50 474 86 510 130 510 c 3
 174 510 210 474 210 430 c 3
 210 386 174 350 130 350 c 3
 86 350 50 386 50 430 c 3
370 110 m 3
 370 154 406 190 450 190 c 3
 494 190 530 154 530 110 c 3
 530 66 494 30 450 30 c 3
 406 30 370 66 370 110 c 3
50 30 m 0
 60 40 520 500 530 510 c 0
EndSplineSet
EndChar

StartChar: ampersand
Encoding: 38 38 130
Width: 510
VWidth: 0
Flags: HMW
LayerCount: 2
Fore
SplineSet
400 210 m 9
 310 120 l 17
 240 50 204 30 160 30 c 3
 99 30 50 79 50 140 c 3
 50 184 70 220 140 290 c 0
 210 360 230 380 230 420 c 3
 230 470 190 510 140 510 c 3
 90 510 50 470 50 420 c 3
 50 380 70 360 140 290 c 0
 213 217 385 45 400 30 c 0
EndSplineSet
EndChar

StartChar: parenleft
Encoding: 40 40 131
Width: 270
VWidth: 0
Flags: HMW
LayerCount: 2
Fore
SplineSet
160 -210 m 0
 90 -105 50 17 50 150 c 3
 50 283 90 405 160 510 c 0
EndSplineSet
EndChar

StartChar: parenright
Encoding: 41 41 132
Width: 270
VWidth: 0
Flags: HMW
LayerCount: 2
Fore
SplineSet
50 510 m 0
 120 405 160 283 160 150 c 3
 160 17 120 -105 50 -210 c 0
EndSplineSet
EndChar

StartChar: comma
Encoding: 44 44 133
Width: 280
VWidth: 0
Flags: HMW
LayerCount: 2
Fore
SplineSet
50 -150 m 0
 60 -135 150 0 170 30 c 0
EndSplineSet
EndChar

StartChar: asterisk
Encoding: 42 42 134
Width: 420
VWidth: 0
Flags: HMW
LayerCount: 2
Fore
SplineSet
245 47 m 24
 195 134 165 186 115 273 c 24
310 160 m 24
 209 160 151 160 50 160 c 24
115 47 m 24
 165 134 195 186 245 273 c 24
EndSplineSet
EndChar

StartChar: plus
Encoding: 43 43 135
Width: 420
VWidth: 0
Flags: HMW
LayerCount: 2
Fore
SplineSet
310 160 m 24
 209 160 151 160 50 160 c 24
180 30 m 24
 180 131 180 189 180 290 c 24
EndSplineSet
EndChar

StartChar: hyphen
Encoding: 45 45 136
Width: 420
VWidth: 0
Flags: HMW
LayerCount: 2
Fore
SplineSet
310 160 m 24
 209 160 151 160 50 160 c 24
EndSplineSet
EndChar

StartChar: slash
Encoding: 47 47 137
Width: 640
VWidth: 10
Flags: HMW
LayerCount: 2
Fore
SplineSet
50 30 m 0
 60 40 520 500 530 510 c 0
EndSplineSet
EndChar

StartChar: zero
Encoding: 48 48 138
Width: 460
VWidth: 0
Flags: HMW
LayerCount: 2
Fore
SplineSet
50 270 m 0
 50 402 117 510 200 510 c 0
 283 510 350 402 350 270 c 0
 350 138 283 30 200 30 c 0
 117 30 50 138 50 270 c 0
EndSplineSet
EndChar

StartChar: one
Encoding: 49 49 139
Width: 310
VWidth: 0
Flags: HMW
LayerCount: 2
Fore
SplineSet
180 30 m 3
 180 40 180 500 180 510 c 9
 129 459 101 431 50 380 c 24
EndSplineSet
EndChar

StartChar: two
Encoding: 50 50 140
Width: 420
VWidth: 10
Flags: HMW
LayerCount: 2
Fore
SplineSet
310 30 m 24
 90 30 l 3
 68 30 50 48 50 70 c 0
 50 81 55 91 62 98 c 1
 252 288 l 0
 276 312 290 344 290 380 c 3
 290 452 232 510 160 510 c 0
 114 510 73 486 50 450 c 1
EndSplineSet
EndChar

StartChar: three
Encoding: 51 51 141
Width: 420
VWidth: 10
Flags: HMW
LayerCount: 2
Fore
SplineSet
50 450 m 1
 73 486 114 510 160 510 c 0
 232 510 290 452 290 380 c 3
 290 330 250 291 200 290 c 1
 262 289 310 241 310 180 c 3
 310 97 243 30 160 30 c 3
 117 30 77 48 50 78 c 1
EndSplineSet
EndChar

StartChar: four
Encoding: 52 52 142
Width: 460
VWidth: 10
Flags: HMW
LayerCount: 2
Fore
SplineSet
350 160 m 24
 249 160 191 160 90 160 c 19
 68 160 50 178 50 200 c 3
 50 208 53 216 57 222 c 1
 249 510 l 0
250 30 m 0
 250 290 l 1
EndSplineSet
EndChar

StartChar: five
Encoding: 53 53 143
Width: 420
VWidth: 10
Flags: HMW
LayerCount: 2
Fore
SplineSet
310 510 m 24
 110 510 l 1
 50 330 l 1
 50 330 117 330 160 330 c 16
 243 330 310 263 310 180 c 0
 310 97 243 30 160 30 c 3
 117 30 77 48 50 78 c 1
EndSplineSet
EndChar

StartChar: six
Encoding: 54 54 144
Width: 420
VWidth: 10
Flags: HMW
LayerCount: 2
Fore
SplineSet
50 160 m 3
 50 232 108 290 180 290 c 3
 252 290 310 232 310 160 c 3
 310 88 252 30 180 30 c 3
 108 30 50 88 50 160 c 3
310 510 m 3
 166 510 50 353 50 160 c 0
EndSplineSet
EndChar

StartChar: seven
Encoding: 55 55 145
Width: 420
VWidth: 0
Flags: HMW
LayerCount: 2
Fore
SplineSet
95 30 m 0
 103 46 95 30 303 446 c 0
 307 454 310 461 310 470 c 3
 310 492 292 510 270 510 c 27
 184 510 136 510 50 510 c 24
EndSplineSet
EndChar

StartChar: eight
Encoding: 56 56 146
Width: 420
VWidth: 10
Flags: HMW
LayerCount: 2
Fore
SplineSet
50 160 m 3
 50 232 108 290 180 290 c 3
 252 290 310 232 310 160 c 3
 310 88 252 30 180 30 c 3
 108 30 50 88 50 160 c 3
70 400 m 3
 70 461 119 510 180 510 c 3
 241 510 290 461 290 400 c 3
 290 339 241 290 180 290 c 3
 119 290 70 339 70 400 c 3
EndSplineSet
EndChar

StartChar: nine
Encoding: 57 57 147
Width: 420
VWidth: 10
Flags: HMW
LayerCount: 2
Fore
SplineSet
180 250 m 3
 108 250 50 308 50 380 c 3
 50 452 108 510 180 510 c 3
 252 510 310 452 310 380 c 3
 310 308 252 250 180 250 c 3
50 30 m 3
 194 30 310 187 310 380 c 0
EndSplineSet
EndChar

StartChar: colon
Encoding: 58 58 148
Width: 210
VWidth: 30
Flags: HMW
LayerCount: 2
Fore
SplineSet
90 60 m 0,0,1
90 260 m 0,0,1
EndSplineSet
EndChar

StartChar: less
Encoding: 60 60 150
Width: 400
VWidth: 10
Flags: HMW
LayerCount: 2
Fore
SplineSet
290 510 m 0
 280 500 60 280 50 270 c 1
 60 260 280 40 290 30 c 0
EndSplineSet
EndChar

StartChar: equal
Encoding: 61 61 151
Width: 420
VWidth: 0
Flags: HMW
LayerCount: 2
Fore
SplineSet
50 90 m 3
 60 90 300 90 310 90 c 0
50 230 m 3
 60 230 300 230 310 230 c 0
EndSplineSet
EndChar

StartChar: greater
Encoding: 62 62 152
Width: 400
VWidth: 10
Flags: HMW
LayerCount: 2
Fore
SplineSet
50 510 m 0
 60 500 280 280 290 270 c 1
 280 260 60 40 50 30 c 0
EndSplineSet
EndChar

StartChar: question
Encoding: 63 63 153
Width: 380
VWidth: 10
Flags: HMW
LayerCount: 2
Fore
SplineSet
160 30 m 0,0,1
50 400 m 3,8,9
 50 461 99 510 160 510 c 3,10,11
 221 510 270 461 270 400 c 3,12,13
 270 350 242 325 215 300 c 0,0,0
 188 275 160 250 160 200 c 3,14,15
 160 190 160 150 160 140 c 0,0,1
EndSplineSet
EndChar

StartChar: at
Encoding: 64 64 154
Width: 510
VWidth: 0
Flags: HMW
LayerCount: 2
Fore
SplineSet
360 110 m 1
 328 62 272 30 210 30 c 3
 122 30 50 115 50 220 c 3
 50 380 144 510 260 510 c 3
 337 510 400 434 400 340 c 3
 400 263 342 200 270 200 c 3
 220 200 180 245 180 300 c 3
 180 355 220 400 270 400 c 3
 320 400 360 355 360 300 c 3
 360 250 320 210 270 210 c 3
 220 210 180 250 180 300 c 0
EndSplineSet
EndChar

StartChar: v._I
Encoding: 57685 57685 155
Width: 420
VWidth: 0
Flags: HMW
AnchorPoint: "top" 180 360 basechar 0
LayerCount: 2
Fore
SplineSet
-30 30 m 3
 18 30 59 65 68 110 c 0
 89 213 l 1
 180 30 l 1
 190 50 300 270 310 290 c 0
EndSplineSet
Substitution2: "latn aalt _IV-1" v._IV
EndChar

StartChar: w._I
Encoding: 57686 57686 156
Width: 600
VWidth: 0
Flags: HMW
AnchorPoint: "top" 270 360 basechar 0
LayerCount: 2
Fore
SplineSet
-30 30 m 3
 18 30 59 65 68 110 c 0
 89 213 l 1
 180 30 l 1
 270 208 l 1
 360 30 l 1
 370 50 480 270 490 290 c 0
EndSplineSet
Substitution2: "latn aalt _IV-1" w._IV
EndChar

StartChar: dotlessi.VI_
Encoding: 57768 57768 157
Width: 280
VWidth: 0
Flags: HMW
AnchorPoint: "top" 110 360 basechar 0
LayerCount: 2
Fore
SplineSet
250 30 m 27
 234 30 230 30 210 30 c 3
 155 30 110 75 110 130 c 0
 110 140 110 280 110 290 c 9
 55 290 -10 290 -30 290 c 3
EndSplineSet
EndChar

StartChar: bracketleft
Encoding: 91 91 160
Width: 280
VWidth: 0
Flags: HMW
LayerCount: 2
Fore
SplineSet
170 -210 m 27
 135 -210 107 -210 80 -210 c 1
 80 -200 80 500 80 510 c 1
 80 510 135 510 170 510 c 24
EndSplineSet
EndChar

StartChar: backslash
Encoding: 92 92 161
Width: 640
VWidth: 10
Flags: HMW
LayerCount: 2
Fore
SplineSet
530 30 m 0
 520 40 60 500 50 510 c 0
EndSplineSet
EndChar

StartChar: bracketright
Encoding: 93 93 162
Width: 280
VWidth: 0
Flags: HMW
LayerCount: 2
Fore
SplineSet
80 510 m 24
 170 510 l 1
 170 500 170 -200 170 -210 c 1
 143 -210 115 -210 80 -210 c 24
EndSplineSet
EndChar

StartChar: underscore
Encoding: 95 95 164
Width: 420
VWidth: 0
Flags: HMW
LayerCount: 2
Fore
SplineSet
50 30 m 0
 310 30 l 0
EndSplineSet
EndChar

StartChar: braceleft
Encoding: 123 123 165
Width: 250
VWidth: 0
Flags: HMW
LayerCount: 2
Fore
SplineSet
140 -210 m 0
 110 -185 90 -150 90 -104 c 24
 90 52 l 3
 90 90 75 125 50 150 c 1
 75 175 90 207 90 248 c 24
 90 404 l 3
 90 447 110 485 140 510 c 0
EndSplineSet
EndChar

StartChar: bar
Encoding: 124 124 166
Width: 210
VWidth: 0
Flags: HMW
LayerCount: 2
Fore
SplineSet
90 510 m 3
 90 500 90 -200 90 -210 c 0
EndSplineSet
EndChar

StartChar: braceright
Encoding: 125 125 167
Width: 250
VWidth: 0
Flags: HMW
LayerCount: 2
Fore
SplineSet
50 510 m 0
 80 485 100 447 100 404 c 0
 100 248 l 3
 100 210 115 175 140 150 c 1
 115 125 100 90 100 52 c 0
 100 -104 l 3
 100 -147 80 -185 50 -210 c 0
EndSplineSet
EndChar

StartChar: questiondown
Encoding: 191 191 172
Width: 380
VWidth: 10
Flags: HMW
LayerCount: 2
Fore
SplineSet
160 510 m 0,0,1
270 140 m 3,8,9
 270 79 221 30 160 30 c 3,10,11
 99 30 50 79 50 140 c 3,12,13
 50 190 78 215 105 240 c 0,0,0
 132 265 160 290 160 340 c 3,14,15
 160 350 160 390 160 400 c 0,0,1
EndSplineSet
EndChar

StartChar: cedilla
Encoding: 184 184 180
Width: 320
VWidth: 10
Flags: HMW
LayerCount: 2
Fore
SplineSet
120 30 m 0
 120 -80 l 17
 170 -80 210 -120 210 -170 c 3
 210 -220 170 -260 120 -260 c 3
 92 -260 66 -247 50 -227 c 0
EndSplineSet
EndChar

StartChar: guillemotleft
Encoding: 171 171 202
Width: 470
VWidth: -100
Flags: HMW
LayerCount: 2
Fore
SplineSet
360 290 m 1
 350 280 240 170 230 160 c 1
 240 150 350 40 360 30 c 1
180 290 m 1
 170 280 60 170 50 160 c 1
 60 150 170 40 180 30 c 1
EndSplineSet
EndChar

StartChar: guillemotright
Encoding: 187 187 203
Width: 470
VWidth: -100
Flags: HMW
LayerCount: 2
Fore
SplineSet
50 290 m 1
 60 280 170 170 180 160 c 1
 170 150 60 40 50 30 c 1
230 290 m 1
 240 280 350 170 360 160 c 1
 350 150 240 40 230 30 c 1
EndSplineSet
EndChar

StartChar: e.VI_
Encoding: 57764 57764 208
Width: 360
VWidth: 0
Flags: HMW
AnchorPoint: "top" 170 360 basechar 0
LayerCount: 2
Fore
SplineSet
-30 290 m 3
 14 290 50 254 50 210 c 11
 50 194 50 186 50 170 c 27
330 30 m 27
 279 30 251 30 200 30 c 19
 117 30 50 93 50 170 c 3
 50 236 104 290 170 290 c 3
 220 290 260 254 260 210 c 3
 260 156 203 130 150 130 c 27
 117 130 98 130 65 130 c 24
EndSplineSet
EndChar

StartChar: exclamdown
Encoding: 161 161 214
Width: 210
VWidth: 0
Flags: HMW
LayerCount: 2
Fore
SplineSet
90 320 m 0,0,1
90 190 m 3,0,1
 90 180 90 -170 90 -180 c 0
EndSplineSet
EndChar

StartChar: cent
Encoding: 162 162 215
Width: 400
VWidth: 0
Flags: HMW
LayerCount: 2
Fore
SplineSet
290 91 m 1
 267 55 226 30 180 30 c 3
 108 30 50 88 50 160 c 3
 50 232 108 290 180 290 c 3
 226 290 267 265 290 229 c 1
180 350 m 3
 180 340 180 -20 180 -30 c 0
EndSplineSet
EndChar

StartChar: sterling
Encoding: 163 163 216
Width: 420
VWidth: 0
Flags: HMW
LayerCount: 2
Fore
SplineSet
280 460 m 0
 262 478 237 490 210 490 c 3
 155 490 110 445 110 390 c 3
 110 380 110 180 110 170 c 3
 110 115 87 65 50 30 c 1
 76 55 111 70 150 70 c 3
 169 70 187 63 200 50 c 0
 213 37 230 30 250 30 c 0
 276 30 298 44 310 64 c 0
50 290 m 27
 120 290 220 290 230 290 c 0
EndSplineSet
EndChar

StartChar: currency
Encoding: 164 164 217
Width: 420
VWidth: 0
Flags: HMW
LayerCount: 2
Fore
SplineSet
310 30 m 0
 251 89 l 1
109 231 m 1
 50 290 l 0
50 30 m 0
 109 89 l 1
251 231 m 1
 310 290 l 0
80 160 m 3
 80 215 125 260 180 260 c 3
 235 260 280 215 280 160 c 3
 280 105 235 60 180 60 c 3
 125 60 80 105 80 160 c 3
EndSplineSet
EndChar

StartChar: yen
Encoding: 165 165 218
Width: 480
VWidth: 0
Flags: HMW
LayerCount: 2
Fore
SplineSet
110 90 m 27
 188 90 232 90 310 90 c 24
110 190 m 27
 188 190 232 190 310 190 c 24
210 270 m 17
 50 510 l 8
210 30 m 3
 210 40 210 177 210 270 c 1
 370 510 l 0
EndSplineSet
EndChar

StartChar: brokenbar
Encoding: 166 166 219
Width: 210
VWidth: 0
Flags: HMW
LayerCount: 2
Fore
SplineSet
90 240 m 0
 90 510 l 0
90 60 m 0
 90 -210 l 0
EndSplineSet
EndChar

StartChar: section
Encoding: 167 167 220
Width: 330
VWidth: 0
Flags: HMW
LayerCount: 2
Fore
SplineSet
184 185 m 0
 206 200 220 226 220 255 c 3
 220 302 182 340 135 340 c 3
 88 340 50 378 50 425 c 3
 50 472 88 510 135 510 c 3
 164 510 190 496 205 474 c 0
65 66 m 0
 80 44 106 30 135 30 c 3
 182 30 220 68 220 115 c 3
 220 162 182 200 135 200 c 3
 88 200 50 238 50 285 c 3
 50 314 64 340 86 355 c 0
EndSplineSet
EndChar

StartChar: logicalnot
Encoding: 172 172 223
Width: 410
VWidth: 426
Flags: HMW
LayerCount: 2
Fore
SplineSet
300 160 m 24
 300 290 l 1
 50 290 l 0
EndSplineSet
EndChar

StartChar: registered
Encoding: 174 174 225
Width: 640
VWidth: 0
Flags: HMW
LayerCount: 2
Fore
SplineSet
220 170 m 24
 220 330 l 3
 220 363 247 390 280 390 c 24
 300 390 l 3
 333 390 360 363 360 330 c 3
 360 297 333 270 300 270 c 11
 269 270 251 270 220 270 c 24
50 270 m 3
 50 402 158 510 290 510 c 3
 422 510 530 402 530 270 c 3
 530 138 422 30 290 30 c 3
 158 30 50 138 50 270 c 3
360 170 m 0
 346 184 283 247 260 270 c 0
EndSplineSet
EndChar

StartChar: degree
Encoding: 176 176 226
Width: 320
VWidth: 356
Flags: HMW
LayerCount: 2
Fore
SplineSet
50 430 m 0
 50 474 86 510 130 510 c 0
 174 510 210 474 210 430 c 0
 210 386 174 350 130 350 c 0
 86 350 50 386 50 430 c 0
EndSplineSet
EndChar

StartChar: uni00B2
Encoding: 178 178 228
Width: 300
VWidth: 10
Flags: HMW
LayerCount: 2
Fore
SplineSet
190 310 m 0
 90 310 l 3
 68 310 50 328 50 350 c 3
 50 363 56 374 65 381 c 1
 175 469 l 1
 184 476 190 487 190 500 c 3
 190 539 159 570 120 570 c 3
 90 570 64 554 50 529 c 0
EndSplineSet
EndChar

StartChar: threesuperior
Encoding: 179 179 229
Width: 300
VWidth: 10
Flags: HMW
LayerCount: 2
Fore
SplineSet
50 351 m 0
 64 326 90 310 120 310 c 3
 159 310 190 341 190 380 c 3
 190 419 159 450 120 450 c 1
 154 451 180 477 180 510 c 3
 180 543 153 570 120 570 c 3
 94 570 72 556 60 536 c 0
EndSplineSet
EndChar

StartChar: mu
Encoding: 181 181 230
Width: 420
VWidth: 0
Flags: HMW
LayerCount: 2
Fore
SplineSet
70 -260 m 3
 70 -250 70 280 70 290 c 0
290 30 m 3
 290 104 290 270 290 290 c 0
290 140 m 19
 290 79 241 30 180 30 c 3
 119 30 70 79 70 140 c 11
EndSplineSet
EndChar

StartChar: paragraph
Encoding: 182 182 231
Width: 430
VWidth: 0
Flags: HMW
LayerCount: 2
Fore
SplineSet
180 510 m 3
 180 500 180 40 180 30 c 0
150 310 m 0
 95 310 50 355 50 410 c 0
 50 465 95 510 150 510 c 11
 208 510 280 510 300 510 c 1
 300 500 300 40 300 30 c 0
EndSplineSet
EndChar

StartChar: uni00B9
Encoding: 185 185 233
Width: 240
VWidth: 0
Flags: HMW
LayerCount: 2
Fore
SplineSet
130 310 m 3
 130 320 130 560 130 570 c 1
 130 570 81 521 50 490 c 24
EndSplineSet
EndChar

StartChar: uni2074
Encoding: 8308 8308 236
Width: 310
VWidth: 10
Flags: HMW
LayerCount: 2
Fore
SplineSet
200 360 m 0
 100 360 l 3
 78 360 60 378 60 400 c 3
 60 408 63 416 67 422 c 1
 67 422 156 555 166 570 c 0
200 410 m 0
 200 310 l 0
EndSplineSet
EndChar

StartChar: AE
Encoding: 198 198 245
Width: 850
VWidth: 0
Flags: HMW
AnchorPoint: "top" 610 540 basechar 0
LayerCount: 2
Fore
SplineSet
740 30 m 16
 450 30 l 3
 400 30 360 70 360 120 c 3
 360 130 360 226 360 380 c 3
 360 452 302 510 230 510 c 3
 136 510 60 402 60 270 c 3
 60 138 136 30 230 30 c 3
 302 30 360 88 360 160 c 0
480 30 m 1
 480 40 480 500 480 510 c 1
 480 510 639 510 740 510 c 24
480 290 m 24
 566 290 614 290 700 290 c 24
EndSplineSet
EndChar

StartChar: eth
Encoding: 240 240 260
Width: 450
VWidth: 0
Flags: HMW
AnchorPoint: "top" 180 540 basechar 0
LayerCount: 2
Fore
SplineSet
50 160 m 3
 50 232 108 290 180 290 c 3
 252 290 310 232 310 160 c 3
 310 88 252 30 180 30 c 3
 108 30 50 88 50 160 c 3
310 160 m 27
 310 203 310 260 310 270 c 3
 310 402 234 510 140 510 c 8
160 390 m 0
 180 400 320 470 340 480 c 0
EndSplineSet
EndChar

StartChar: oslash
Encoding: 248 248 271
Width: 480
VWidth: 0
Flags: HMW
AnchorPoint: "top" 220 360 basechar 0
LayerCount: 2
Fore
SplineSet
90 160 m 3
 90 232 148 290 220 290 c 3
 292 290 350 232 350 160 c 3
 350 88 292 30 220 30 c 3
 148 30 90 88 90 160 c 3
60 0 m 0
 60 0 370 310 380 320 c 0
EndSplineSet
EndChar

StartChar: thorn
Encoding: 254 254 279
Width: 410
VWidth: 0
Flags: HMW
AnchorPoint: "top" 200 540 basechar 0
LayerCount: 2
Fore
SplineSet
70 -260 m 3
 70 -250 70 500 70 510 c 0
70 229 m 1
 93 265 134 290 180 290 c 3
 252 290 310 232 310 160 c 3
 310 28 202 -80 70 -80 c 0
EndSplineSet
EndChar

StartChar: Thorn
Encoding: 222 222 280
Width: 440
VWidth: 10
Flags: HMW
AnchorPoint: "top" 230 540 basechar 0
LayerCount: 2
Fore
SplineSet
70 620 m 24
 70 30 l 1
70 510 m 24
 200 510 l 0
 272 510 330 452 330 380 c 3
 330 236 214 120 70 120 c 0
EndSplineSet
EndChar

StartChar: dotlessj.VI_
Encoding: 57769 57769 283
Width: 270
VWidth: 0
Flags: HMW
AnchorPoint: "top" 140 360 basechar 0
LayerCount: 2
Fore
SplineSet
240 30 m 3
 185 30 140 -15 140 -70 c 0
-30 290 m 3
 -10 290 120 290 140 290 c 9
 140 118 140 -130 140 -150 c 3
 140 -211 91 -260 30 -260 c 0
EndSplineSet
EndChar

StartChar: uni1D9C
Encoding: 7580 7580 285
Width: 340
VWidth: 0
Flags: HMW
LayerCount: 2
Fore
SplineSet
230 340 m 0
 212 322 187 310 160 310 c 3
 105 310 60 355 60 410 c 3
 60 465 105 510 160 510 c 3
 188 510 212 498 230 480 c 0
EndSplineSet
EndChar

StartChar: circle
Encoding: 9675 9675 286
Width: 650
VWidth: 0
Flags: HMW
LayerCount: 2
Fore
SplineSet
60 270 m 0
 60 402 168 510 300 510 c 0
 432 510 540 402 540 270 c 0
 540 138 432 30 300 30 c 0
 168 30 60 138 60 270 c 0
EndSplineSet
EndChar

StartChar: a.I
Encoding: 57600 57600 287
Width: 420
VWidth: 0
Flags: HMW
LayerCount: 2
Fore
SplineSet
290 260 m 27
 290 170 290 50 290 30 c 0
290 229 m 1
 267 265 226 290 180 290 c 3
 108 290 50 232 50 160 c 3
 50 88 108 30 180 30 c 3
 226 30 267 55 290 91 c 1
EndSplineSet
EndChar

StartChar: a.I_
Encoding: 57632 57632 288
Width: 420
VWidth: 0
Flags: HMW
AnchorPoint: "top" 180 360 basechar 0
LayerCount: 2
Fore
SplineSet
290 260 m 27
 290 194 290 111 290 91 c 1
 267 55 226 30 180 30 c 3
 108 30 50 88 50 160 c 3
 50 232 108 290 180 290 c 3
 226 290 267 265 290 229 c 1
390 30 m 3
 335 30 290 75 290 130 c 3
EndSplineSet
Substitution2: "latn aalt VI_-1" a.VI_
Substitution2: "latn aalt _I_-1" a._I_
EndChar

StartChar: a._I
Encoding: 57664 57664 289
Width: 420
VWidth: 0
Flags: HMW
AnchorPoint: "top" 180 360 basechar 0
LayerCount: 2
Fore
SplineSet
-30 30 m 3
 13 30 50 58 64 96 c 0
290 260 m 27
 290 170 290 50 290 30 c 3
290 229 m 1
 267 265 226 290 180 290 c 3
 108 290 50 232 50 160 c 3
 50 88 108 30 180 30 c 3
 226 30 267 55 290 91 c 1
EndSplineSet
Substitution2: "latn aalt _I_-1" a._I_
EndChar

StartChar: a.VI
Encoding: 57728 57728 290
Width: 420
VWidth: 0
Flags: HMW
AnchorPoint: "top" 180 360 basechar 0
LayerCount: 2
Fore
SplineSet
290 260 m 27
 290 170 290 50 290 30 c 0
290 229 m 1
 267 265 226 290 180 290 c 3
 108 290 50 232 50 160 c 3
 50 88 108 30 180 30 c 3
 226 30 267 55 290 91 c 1
-30 290 m 3
 -10 290 160 290 180 290 c 0
EndSplineSet
Substitution2: "latn aalt VI_-1" a.VI_
EndChar

StartChar: a.VI_
Encoding: 57760 57760 291
Width: 420
VWidth: 0
Flags: HMW
AnchorPoint: "top" 180 360 basechar 0
LayerCount: 2
Fore
SplineSet
390 30 m 3
 335 30 290 75 290 130 c 3
290 260 m 27
 290 194 290 111 290 91 c 1
 267 55 226 30 180 30 c 3
 108 30 50 88 50 160 c 3
 50 232 108 290 180 290 c 3
 226 290 267 265 290 229 c 1
-30 290 m 3
 -10 290 160 290 180 290 c 0
EndSplineSet
EndChar

StartChar: v.I
Encoding: 57621 57621 292
Width: 420
VWidth: 0
Flags: HMW
LayerCount: 2
Fore
SplineSet
310 290 m 0
 300 270 190 50 180 30 c 1
 170 50 60 270 50 290 c 0
EndSplineSet
EndChar

StartChar: o.I
Encoding: 57614 57614 293
Width: 420
VWidth: 0
Flags: HMW
LayerCount: 2
Fore
SplineSet
50 160 m 3
 50 232 108 290 180 290 c 3
 252 290 310 232 310 160 c 3
 310 88 252 30 180 30 c 3
 108 30 50 88 50 160 c 3
EndSplineSet
EndChar

StartChar: v.IV
Encoding: 57653 57653 294
Width: 420
VWidth: 0
Flags: HMW
AnchorPoint: "top" 180 360 basechar 0
LayerCount: 2
Fore
SplineSet
390 290 m 3
 380 290 392 290 372 290 c 3
 333 290 298 267 282 234 c 0
 180 30 l 1
 170 50 60 270 50 290 c 0
EndSplineSet
Substitution2: "latn aalt VIV-1" v.VIV
Substitution2: "latn aalt _IV-1" v._IV
EndChar

StartChar: v._IV
Encoding: 57717 57717 295
Width: 420
VWidth: 0
Flags: HMW
AnchorPoint: "top" 180 360 basechar 0
LayerCount: 2
Fore
SplineSet
390 290 m 3
 380 290 392 290 372 290 c 3
 333 290 298 267 282 234 c 0
 180 30 l 1
 89 213 l 1
 68 110 l 0
 59 65 18 30 -30 30 c 3
EndSplineSet
EndChar

StartChar: o.IV
Encoding: 57646 57646 296
Width: 420
VWidth: 0
Flags: HMW
AnchorPoint: "top" 180 360 basechar 0
LayerCount: 2
Fore
SplineSet
180 290 m 3
 200 290 380 290 390 290 c 3
50 160 m 3
 50 232 108 290 180 290 c 3
 252 290 310 232 310 160 c 3
 310 88 252 30 180 30 c 3
 108 30 50 88 50 160 c 3
EndSplineSet
Substitution2: "latn aalt VIV-1" o.VIV
Substitution2: "latn aalt _IV-1" o._IV
EndChar

StartChar: o._IV
Encoding: 57710 57710 297
Width: 420
VWidth: 0
Flags: HMW
AnchorPoint: "top" 180 360 basechar 0
LayerCount: 2
Fore
SplineSet
-30 30 m 3
 13 30 50 58 64 96 c 0
390 290 m 3
 380 290 200 290 180 290 c 0
50 160 m 3
 50 232 108 290 180 290 c 3
 252 290 310 232 310 160 c 3
 310 88 252 30 180 30 c 3
 108 30 50 88 50 160 c 3
EndSplineSet
EndChar

StartChar: b.I
Encoding: 57601 57601 298
Width: 420
VWidth: 0
Flags: HMW
LayerCount: 2
Fore
SplineSet
70 229 m 1
 93 265 134 290 180 290 c 3
 252 290 310 232 310 160 c 3
 310 88 252 30 180 30 c 3
 134 30 93 55 70 91 c 1
 70 101 70 500 70 510 c 3
EndSplineSet
EndChar

StartChar: b.VI
Encoding: 57729 57729 299
Width: 420
VWidth: 0
Flags: HMW
AnchorPoint: "top" 200 540 basechar 0
LayerCount: 2
Fore
SplineSet
70 390 m 27
 70 335 25 290 -30 290 c 3
70 229 m 1
 93 265 134 290 180 290 c 3
 252 290 310 232 310 160 c 3
 310 88 252 30 180 30 c 3
 134 30 93 55 70 91 c 1
 70 101 70 500 70 510 c 3
EndSplineSet
Substitution2: "latn aalt VI_-1" b.VI_
EndChar

StartChar: c.I
Encoding: 57602 57602 300
Width: 380
VWidth: 0
Flags: HMW
LayerCount: 2
Fore
SplineSet
290 91 m 0
 267 55 226 30 180 30 c 3
 108 30 50 88 50 160 c 3
 50 232 108 290 180 290 c 3
 226 290 267 265 290 229 c 0
EndSplineSet
EndChar

StartChar: c.VI
Encoding: 57730 57730 301
Width: 380
VWidth: 0
Flags: HMW
AnchorPoint: "top" 180 360 basechar 0
LayerCount: 2
Fore
SplineSet
-30 290 m 3
 -10 290 160 290 180 290 c 0
290 91 m 0
 267 55 226 30 180 30 c 3
 108 30 50 88 50 160 c 3
 50 232 108 290 180 290 c 3
 226 290 267 265 290 229 c 0
EndSplineSet
Substitution2: "latn aalt VI_-1" c.VI_
EndChar

StartChar: d.I
Encoding: 57603 57603 302
Width: 420
VWidth: 0
Flags: HMW
LayerCount: 2
Fore
SplineSet
290 510 m 3
 290 500 290 40 290 30 c 3
290 91 m 0
 267 55 226 30 180 30 c 3
 108 30 50 88 50 160 c 3
 50 232 108 290 180 290 c 3
 226 290 267 265 290 229 c 0
EndSplineSet
EndChar

StartChar: d.I_
Encoding: 57635 57635 303
Width: 420
VWidth: 0
Flags: HMW
AnchorPoint: "top" 160 540 basechar 0
LayerCount: 2
Fore
SplineSet
290 510 m 3
 290 130 l 3
 290 75 335 30 390 30 c 3
290 91 m 0
 267 55 226 30 180 30 c 3
 108 30 50 88 50 160 c 3
 50 232 108 290 180 290 c 3
 226 290 267 265 290 229 c 0
EndSplineSet
Substitution2: "latn aalt VI_-1" d.VI_
Substitution2: "latn aalt _I_-1" d._I_
EndChar

StartChar: d._I
Encoding: 57667 57667 304
Width: 420
VWidth: 0
Flags: HMW
AnchorPoint: "top" 160 540 basechar 0
LayerCount: 2
Fore
SplineSet
-30 30 m 3
 13 30 50 58 64 96 c 0
290 510 m 3
 290 500 290 40 290 30 c 3
290 91 m 0
 267 55 226 30 180 30 c 3
 108 30 50 88 50 160 c 3
 50 232 108 290 180 290 c 3
 226 290 267 265 290 229 c 0
EndSplineSet
Substitution2: "latn aalt _I_-1" d._I_
EndChar

StartChar: d.VI
Encoding: 57731 57731 305
Width: 420
VWidth: 0
Flags: HMW
AnchorPoint: "top" 160 540 basechar 0
LayerCount: 2
Fore
SplineSet
290 510 m 3
 290 500 290 40 290 30 c 3
290 91 m 0
 267 55 226 30 180 30 c 3
 108 30 50 88 50 160 c 3
 50 232 108 290 180 290 c 3
 226 290 267 265 290 229 c 0
-30 290 m 3
 -10 290 160 290 180 290 c 3
EndSplineSet
Substitution2: "latn aalt VI_-1" d.VI_
EndChar

StartChar: d.VI_
Encoding: 57763 57763 306
Width: 420
VWidth: 0
Flags: HMW
LayerCount: 2
Fore
SplineSet
-30 290 m 3
 -10 290 160 290 180 290 c 3
290 510 m 3
 290 130 l 3
 290 75 335 30 390 30 c 3
290 91 m 0
 267 55 226 30 180 30 c 3
 108 30 50 88 50 160 c 3
 50 232 108 290 180 290 c 3
 226 290 267 265 290 229 c 0
EndSplineSet
EndChar

StartChar: e.I
Encoding: 57604 57604 307
Width: 360
VWidth: 0
Flags: HMW
LayerCount: 2
Fore
SplineSet
260 30 m 27
 237 30 223 30 200 30 c 19
 117 30 50 93 50 170 c 3
 50 236 104 290 170 290 c 3
 220 290 260 254 260 210 c 3
 260 156 203 130 150 130 c 27
 117 130 98 130 65 130 c 24
EndSplineSet
EndChar

StartChar: e.VI
Encoding: 57732 57732 308
Width: 360
VWidth: 0
Flags: HMW
AnchorPoint: "top" 170 360 basechar 0
LayerCount: 2
Fore
SplineSet
50 170 m 27
 50 186 50 194 50 210 c 19
 50 254 14 290 -30 290 c 0
260 30 m 27
 237 30 223 30 200 30 c 19
 117 30 50 93 50 170 c 3
 50 236 104 290 170 290 c 3
 220 290 260 254 260 210 c 3
 260 156 203 130 150 130 c 27
 117 130 98 130 65 130 c 24
EndSplineSet
Substitution2: "latn aalt VI_-1" e.VI_
EndChar

StartChar: s.I
Encoding: 57618 57618 309
Width: 490
VWidth: 0
Flags: HMW
LayerCount: 2
Fore
SplineSet
180 50 m 0
 200 37 224 30 250 30 c 3
 322 30 380 88 380 160 c 3
 380 232 322 290 250 290 c 1
 228 264 52 56 30 30 c 0
EndSplineSet
EndChar

StartChar: s.VI
Encoding: 57746 57746 310
Width: 490
VWidth: 0
Flags: HMW
AnchorPoint: "top" 250 360 basechar 0
LayerCount: 2
Fore
SplineSet
-30 290 m 3
 20 290 200 290 250 290 c 3
 322 290 380 232 380 160 c 3
 380 88 322 30 250 30 c 3
 224 30 200 37 180 50 c 0
EndSplineSet
Substitution2: "latn aalt VI_-1" s.VI_
EndChar

StartChar: f.I
Encoding: 57605 57605 311
Width: 350
VWidth: 0
Flags: HMW
LayerCount: 2
Fore
SplineSet
90 -260 m 3
 90 -250 90 400 90 410 c 3
 90 465 135 510 190 510 c 3
 217 510 242 498 260 480 c 0
50 30 m 3
 70 30 230 30 240 30 c 3
EndSplineSet
EndChar

StartChar: f.I_
Encoding: 57637 57637 312
Width: 350
VWidth: 0
Flags: HMW
AnchorPoint: "top" 190 540 basechar 0
LayerCount: 2
Fore
SplineSet
90 -260 m 3
 90 -250 90 400 90 410 c 3
 90 465 135 510 190 510 c 3
 217 510 242 498 260 480 c 0
50 30 m 3
 70 30 310 30 320 30 c 3
EndSplineSet
Substitution2: "latn aalt VI_-1" f.VI_
Substitution2: "latn aalt _I_-1" f._I_
EndChar

StartChar: f._I
Encoding: 57669 57669 313
Width: 350
VWidth: 0
Flags: HMW
AnchorPoint: "top" 190 540 basechar 0
LayerCount: 2
Fore
SplineSet
-30 30 m 3
 -10 30 -20 30 -10 30 c 3
 45 30 90 75 90 130 c 3
90 -260 m 3
 90 -250 90 400 90 410 c 3
 90 465 135 510 190 510 c 3
 217 510 242 498 260 480 c 0
240 30 m 3
 230 30 210 30 190 30 c 3
 135 30 90 -15 90 -70 c 0
EndSplineSet
Substitution2: "latn aalt _I_-1" f._I_
EndChar

StartChar: f.VI
Encoding: 57733 57733 314
Width: 350
VWidth: 0
Flags: HMW
AnchorPoint: "top" 190 540 basechar 0
LayerCount: 2
Fore
SplineSet
-30 290 m 3
 -10 290 -20 290 -10 290 c 3
 45 290 90 335 90 390 c 0
90 -260 m 3
 90 -250 90 400 90 410 c 3
 90 465 135 510 190 510 c 3
 217 510 242 498 260 480 c 0
50 30 m 3
 70 30 230 30 240 30 c 0
EndSplineSet
Substitution2: "latn aalt VI_-1" f.VI_
EndChar

StartChar: f.VI_
Encoding: 57765 57765 315
Width: 350
VWidth: 0
Flags: HMW
AnchorPoint: "top" 190 540 basechar 0
LayerCount: 2
Fore
SplineSet
-30 290 m 3
 -10 290 -20 290 -10 290 c 3
 45 290 90 335 90 390 c 0
90 -260 m 3
 90 -250 90 400 90 410 c 3
 90 465 135 510 190 510 c 3
 217 510 242 498 260 480 c 0
50 30 m 3
 70 30 310 30 320 30 c 3
EndSplineSet
EndChar

StartChar: g.I
Encoding: 57606 57606 316
Width: 420
VWidth: 0
Flags: HMW
LayerCount: 2
Fore
SplineSet
290 91 m 1
 267 55 226 30 180 30 c 3
 108 30 50 88 50 160 c 3
 50 232 108 290 180 290 c 3
 241 290 290 241 290 180 c 11
 290 51 290 -130 290 -150 c 3
 290 -211 241 -260 180 -260 c 3
 150 -260 123 -249 100 -226 c 0
EndSplineSet
EndChar

StartChar: g.VI
Encoding: 57734 57734 317
Width: 420
VWidth: 0
Flags: HMW
AnchorPoint: "top" 180 360 basechar 0
LayerCount: 2
Fore
SplineSet
290 91 m 1
 267 55 226 30 180 30 c 3
 108 30 50 88 50 160 c 3
 50 232 108 290 180 290 c 3
 241 290 290 241 290 180 c 11
 290 51 290 -130 290 -150 c 3
 290 -211 241 -260 180 -260 c 3
 150 -260 123 -249 100 -226 c 0
-30 290 m 3
 -10 290 98 290 180 290 c 27
EndSplineSet
Substitution2: "latn aalt VI_-1" g.VI_
EndChar

StartChar: dotlessj.I
Encoding: 57609 57609 318
Width: 270
VWidth: 0
Flags: HMW
LayerCount: 2
Fore
SplineSet
140 290 m 27
 140 118 140 -130 140 -150 c 3
 140 -211 91 -260 30 -260 c 0
EndSplineSet
EndChar

StartChar: dotlessj.VI
Encoding: 57737 57737 319
Width: 270
VWidth: 0
Flags: HMW
AnchorPoint: "top" 140 360 basechar 0
LayerCount: 2
Fore
SplineSet
-30 290 m 3
 -10 290 120 290 140 290 c 9
 140 118 140 -130 140 -150 c 3
 140 -211 91 -260 30 -260 c 0
EndSplineSet
Substitution2: "latn aalt VI_-1" dotlessj.VI_
EndChar

StartChar: h.I
Encoding: 57607 57607 320
Width: 420
VWidth: 0
Flags: HMW
LayerCount: 2
Fore
SplineSet
70 170 m 3
 70 236 124 290 190 290 c 3
 245 290 290 245 290 190 c 11
 290 128 290 50 290 30 c 0
70 510 m 3
 70 500 70 40 70 30 c 0
EndSplineSet
EndChar

StartChar: h.I_
Encoding: 57639 57639 321
Width: 420
VWidth: 0
Flags: HMW
AnchorPoint: "top" 200 540 basechar 0
LayerCount: 2
Fore
SplineSet
390 30 m 3
 335 30 290 75 290 130 c 3
 290 180 l 3
 290 241 241 290 180 290 c 3
 119 290 70 241 70 180 c 11
70 30 m 27
 70 217 70 500 70 510 c 0
EndSplineSet
Substitution2: "latn aalt VI_-1" h.VI_
Substitution2: "latn aalt _I_-1" h._I_
EndChar

StartChar: h._I
Encoding: 57671 57671 322
Width: 420
VWidth: 0
Flags: HMW
AnchorPoint: "top" 200 540 basechar 0
LayerCount: 2
Fore
SplineSet
70 130 m 3
 70 75 25 30 -30 30 c 3
70 170 m 3
 70 236 124 290 190 290 c 3
 245 290 290 245 290 190 c 11
 290 128 290 50 290 30 c 0
70 510 m 3
 70 500 70 40 70 30 c 0
EndSplineSet
Substitution2: "latn aalt _I_-1" h._I_
EndChar

StartChar: h.VI
Encoding: 57735 57735 323
Width: 420
VWidth: 0
Flags: HMW
AnchorPoint: "top" 200 540 basechar 0
LayerCount: 2
Fore
SplineSet
70 390 m 27
 70 335 25 290 -30 290 c 3
70 170 m 3
 70 236 124 290 190 290 c 3
 245 290 290 245 290 190 c 11
 290 128 290 50 290 30 c 0
70 510 m 3
 70 500 70 40 70 30 c 0
EndSplineSet
Substitution2: "latn aalt VI_-1" h.VI_
EndChar

StartChar: h.VI_
Encoding: 57767 57767 324
Width: 420
VWidth: 0
Flags: HMW
AnchorPoint: "top" 200 540 basechar 0
LayerCount: 2
Fore
SplineSet
70 390 m 27
 70 335 25 290 -30 290 c 3
390 30 m 3
 335 30 290 75 290 130 c 3
 290 180 l 3
 290 241 241 290 180 290 c 3
 119 290 70 241 70 180 c 11
70 30 m 27
 70 217 70 500 70 510 c 0
EndSplineSet
EndChar

StartChar: dotlessi.I
Encoding: 57608 57608 325
Width: 280
VWidth: 0
Flags: HMW
LayerCount: 2
Fore
SplineSet
110 290 m 3
 110 280 110 40 110 30 c 0
EndSplineSet
EndChar

StartChar: dotlessi.VI
Encoding: 57736 57736 326
Width: 280
VWidth: 0
Flags: HMW
AnchorPoint: "top" 110 360 basechar 0
LayerCount: 2
Fore
SplineSet
-30 290 m 3
 -10 290 55 290 110 290 c 25
 110 189 110 40 110 30 c 0
EndSplineSet
Substitution2: "latn aalt VI_-1" dotlessi.VI_
EndChar

StartChar: k.I
Encoding: 57610 57610 327
Width: 410
VWidth: 0
Flags: HMW
LayerCount: 2
Fore
SplineSet
290 30 m 0
 280 50 210 190 200 210 c 0
70 30 m 3
 70 40 70 500 70 510 c 0
70 140 m 0
 100 160 270 270 300 290 c 0
EndSplineSet
EndChar

StartChar: k.I_
Encoding: 57642 57642 328
Width: 410
VWidth: 0
Flags: HMW
AnchorPoint: "top" 205 540 basechar 0
LayerCount: 2
Fore
SplineSet
380 30 m 0
 312 30 249 98 200 210 c 0
70 30 m 3
 70 40 70 500 70 510 c 0
70 140 m 0
 100 160 270 270 300 290 c 0
EndSplineSet
Substitution2: "latn aalt VI_-1" k.VI_
Substitution2: "latn aalt _I_-1" k._I_
EndChar

StartChar: k._I
Encoding: 57674 57674 329
Width: 410
VWidth: 0
Flags: HMW
AnchorPoint: "top" 205 540 basechar 0
LayerCount: 2
Fore
SplineSet
70 130 m 3
 70 75 25 30 -30 30 c 3
290 30 m 0
 280 50 210 190 200 210 c 0
70 30 m 3
 70 40 70 500 70 510 c 0
70 140 m 0
 100 160 270 270 300 290 c 0
EndSplineSet
Substitution2: "latn aalt _I_-1" k._I_
EndChar

StartChar: k.VI
Encoding: 57738 57738 330
Width: 410
VWidth: 0
Flags: HMW
AnchorPoint: "top" 205 540 basechar 0
LayerCount: 2
Fore
SplineSet
70 390 m 27
 70 335 25 290 -30 290 c 3
290 30 m 0
 280 50 210 190 200 210 c 0
70 30 m 3
 70 40 70 500 70 510 c 0
70 140 m 0
 100 160 270 270 300 290 c 0
EndSplineSet
Substitution2: "latn aalt VI_-1" k.VI_
EndChar

StartChar: k.VI_
Encoding: 57770 57770 331
Width: 410
VWidth: 0
Flags: HMW
AnchorPoint: "top" 205 540 basechar 0
LayerCount: 2
Fore
SplineSet
70 390 m 27
 70 335 25 290 -30 290 c 3
380 30 m 0
 312 30 249 98 200 210 c 0
70 30 m 3
 70 40 70 500 70 510 c 0
70 140 m 0
 100 160 270 270 300 290 c 0
EndSplineSet
EndChar

StartChar: l.I
Encoding: 57611 57611 332
Width: 300
VWidth: 0
Flags: HMW
LayerCount: 2
Fore
SplineSet
190 30 m 3
 135 30 90 75 90 130 c 3
 90 140 90 400 90 410 c 3
 90 465 135 510 190 510 c 0
EndSplineSet
EndChar

StartChar: l.I_
Encoding: 57643 57643 333
Width: 300
VWidth: 0
Flags: HMW
AnchorPoint: "top" 170 540 basechar 0
LayerCount: 2
Fore
SplineSet
270 30 m 27
 239 30 210 30 190 30 c 3
 135 30 90 75 90 130 c 3
 90 140 90 400 90 410 c 3
 90 465 135 510 190 510 c 0
EndSplineSet
Substitution2: "latn aalt VI_-1" l.VI_
Substitution2: "latn aalt _I_-1" l._I_
EndChar

StartChar: l._I
Encoding: 57675 57675 334
Width: 300
VWidth: 0
Flags: HMW
AnchorPoint: "top" 170 540 basechar 0
LayerCount: 2
Fore
SplineSet
190 30 m 3
 135 30 90 75 90 130 c 3
 90 140 90 400 90 410 c 3
 90 465 135 510 190 510 c 0
-30 30 m 3
 -10 30 -20 30 -10 30 c 3
 45 30 90 75 90 130 c 0
EndSplineSet
Substitution2: "latn aalt _I_-1" l._I_
EndChar

StartChar: l.VI
Encoding: 57739 57739 335
Width: 300
VWidth: 0
Flags: HMW
AnchorPoint: "top" 170 540 basechar 0
LayerCount: 2
Fore
SplineSet
-30 290 m 3
 -24 290 -13 290 -10 290 c 3
 45 290 90 335 90 390 c 27
190 30 m 3
 135 30 90 75 90 130 c 3
 90 140 90 400 90 410 c 3
 90 465 135 510 190 510 c 0
EndSplineSet
Substitution2: "latn aalt VI_-1" l.VI_
EndChar

StartChar: l.VI_
Encoding: 57771 57771 336
Width: 300
VWidth: 0
Flags: HMW
AnchorPoint: "top" 170 540 basechar 0
LayerCount: 2
Fore
SplineSet
270 30 m 27
 239 30 210 30 190 30 c 3
 135 30 90 75 90 130 c 3
 90 140 90 400 90 410 c 3
 90 465 135 510 190 510 c 0
-30 290 m 3
 -24 290 -13 290 -10 290 c 3
 45 290 90 335 90 390 c 27
EndSplineSet
EndChar

StartChar: m.I
Encoding: 57612 57612 337
Width: 640
VWidth: 0
Flags: HMW
LayerCount: 2
Fore
SplineSet
290 170 m 3
 290 236 344 290 410 290 c 3
 465 290 510 245 510 190 c 11
 510 128 510 50 510 30 c 0
70 30 m 3
 70 50 70 216 70 290 c 0
70 170 m 3
 70 236 124 290 190 290 c 3
 245 290 290 245 290 190 c 11
 290 128 290 50 290 30 c 0
EndSplineSet
EndChar

StartChar: m.I_
Encoding: 57644 57644 338
Width: 640
VWidth: 0
Flags: HMW
AnchorPoint: "top" 290 360 basechar 0
LayerCount: 2
Fore
SplineSet
290 170 m 3
 290 236 344 290 410 290 c 3
 465 290 510 245 510 190 c 11
 510 167 510 150 510 130 c 3
 510 75 555 30 610 30 c 3
70 30 m 3
 70 50 70 216 70 290 c 0
70 170 m 3
 70 236 124 290 190 290 c 3
 245 290 290 245 290 190 c 11
 290 128 290 50 290 30 c 0
EndSplineSet
Substitution2: "latn aalt VI_-1" m.VI_
Substitution2: "latn aalt _I_-1" m._I_
EndChar

StartChar: m._I
Encoding: 57676 57676 339
Width: 640
VWidth: 0
Flags: HMW
AnchorPoint: "top" 290 360 basechar 0
LayerCount: 2
Fore
SplineSet
290 170 m 3
 290 236 344 290 410 290 c 3
 465 290 510 245 510 190 c 11
 510 128 510 50 510 30 c 0
290 30 m 0
 290 50 290 128 290 190 c 19
 290 245 245 290 190 290 c 3
 124 290 70 236 70 170 c 3
 70 160 70 140 70 130 c 3
 70 75 25 30 -30 30 c 3
EndSplineSet
Substitution2: "latn aalt _I_-1" m._I_
EndChar

StartChar: m.VI
Encoding: 57740 57740 340
Width: 640
VWidth: 0
Flags: HMW
AnchorPoint: "top" 290 360 basechar 0
LayerCount: 2
Fore
SplineSet
290 170 m 3
 290 236 344 290 410 290 c 3
 465 290 510 245 510 190 c 11
 510 128 510 50 510 30 c 0
-30 290 m 3
 25 290 70 245 70 190 c 3
 70 180 70 40 70 30 c 0
70 170 m 3
 70 236 124 290 190 290 c 3
 245 290 290 245 290 190 c 11
 290 128 290 50 290 30 c 0
EndSplineSet
Substitution2: "latn aalt VI_-1" m.VI_
EndChar

StartChar: m.VI_
Encoding: 57772 57772 341
Width: 640
VWidth: 0
Flags: HMW
AnchorPoint: "top" 290 360 basechar 0
LayerCount: 2
Fore
SplineSet
290 170 m 3
 290 236 344 290 410 290 c 3
 465 290 510 245 510 190 c 11
 510 167 510 150 510 130 c 3
 510 75 555 30 610 30 c 3
-30 290 m 3
 25 290 70 245 70 190 c 3
 70 180 70 40 70 30 c 0
70 170 m 3
 70 236 124 290 190 290 c 3
 245 290 290 245 290 190 c 11
 290 128 290 50 290 30 c 0
EndSplineSet
EndChar

StartChar: n.I
Encoding: 57613 57613 342
Width: 420
VWidth: 0
Flags: HMW
LayerCount: 2
Fore
SplineSet
70 30 m 3
 70 50 70 216 70 290 c 0
70 170 m 3
 70 236 124 290 190 290 c 3
 245 290 290 245 290 190 c 11
 290 128 290 50 290 30 c 0
EndSplineSet
EndChar

StartChar: p.I
Encoding: 57615 57615 343
Width: 420
VWidth: 0
Flags: HMW
LayerCount: 2
Fore
SplineSet
70 -260 m 3
 70 -250 70 280 70 290 c 0
70 229 m 1
 93 265 134 290 180 290 c 3
 252 290 310 232 310 160 c 3
 310 88 252 30 180 30 c 3
 134 30 93 55 70 91 c 1
EndSplineSet
EndChar

StartChar: p.VI
Encoding: 57743 57743 344
Width: 420
VWidth: 0
Flags: HMW
AnchorPoint: "top" 180 360 basechar 0
LayerCount: 2
Fore
SplineSet
-30 290 m 3
 -10 290 50 290 70 290 c 1
 70 280 70 -250 70 -260 c 3
70 229 m 1
 93 265 134 290 180 290 c 3
 252 290 310 232 310 160 c 3
 310 88 252 30 180 30 c 3
 134 30 93 55 70 91 c 1
EndSplineSet
Substitution2: "latn aalt VI_-1" p.VI_
EndChar

StartChar: n.I_
Encoding: 57645 57645 345
Width: 420
VWidth: 0
Flags: HMW
AnchorPoint: "top" 190 360 basechar 0
LayerCount: 2
Fore
SplineSet
390 30 m 3
 335 30 290 75 290 130 c 3
 290 150 290 167 290 190 c 19
 290 245 245 290 190 290 c 3
 124 290 70 236 70 170 c 3
70 30 m 3
 70 50 70 216 70 290 c 0
EndSplineSet
Substitution2: "latn aalt VI_-1" n.VI_
Substitution2: "latn aalt _I_-1" n._I_
EndChar

StartChar: n._I
Encoding: 57677 57677 346
Width: 420
VWidth: 0
Flags: HMW
AnchorPoint: "top" 190 360 basechar 0
LayerCount: 2
Fore
SplineSet
70 130 m 3
 70 75 25 30 -30 30 c 3
70 30 m 3
 70 50 70 216 70 290 c 0
70 170 m 3
 70 236 124 290 190 290 c 3
 245 290 290 245 290 190 c 11
 290 128 290 50 290 30 c 0
EndSplineSet
Substitution2: "latn aalt _I_-1" n._I_
EndChar

StartChar: n.VI
Encoding: 57741 57741 347
Width: 420
VWidth: 0
Flags: HMW
AnchorPoint: "top" 190 360 basechar 0
LayerCount: 2
Fore
SplineSet
-30 290 m 3
 25 290 70 245 70 190 c 3
 70 180 70 40 70 30 c 0
70 170 m 3
 70 236 124 290 190 290 c 3
 245 290 290 245 290 190 c 11
 290 128 290 50 290 30 c 0
EndSplineSet
Substitution2: "latn aalt VI_-1" n.VI_
EndChar

StartChar: n.VI_
Encoding: 57773 57773 348
Width: 420
VWidth: 0
Flags: HMW
AnchorPoint: "top" 190 360 basechar 0
LayerCount: 2
Fore
SplineSet
390 30 m 3
 335 30 290 75 290 130 c 3
 290 150 290 167 290 190 c 19
 290 245 245 290 190 290 c 3
 124 290 70 236 70 170 c 3
-30 290 m 3
 25 290 70 245 70 190 c 3
 70 180 70 40 70 30 c 0
EndSplineSet
EndChar

StartChar: q.I
Encoding: 57616 57616 349
Width: 420
VWidth: 0
Flags: HMW
LayerCount: 2
Fore
SplineSet
290 -260 m 3
 290 -240 290 57 290 260 c 24
290 229 m 1
 267 265 226 290 180 290 c 3
 108 290 50 232 50 160 c 3
 50 88 108 30 180 30 c 3
 226 30 267 55 290 91 c 1
EndSplineSet
EndChar

StartChar: q.VI
Encoding: 57744 57744 350
Width: 420
VWidth: 0
Flags: HMW
AnchorPoint: "top" 180 360 basechar 0
LayerCount: 2
Fore
SplineSet
-30 290 m 3
 -10 290 160 290 180 290 c 3
290 260 m 3
 290 250 290 -240 290 -260 c 3
290 91 m 1
 267 55 226 30 180 30 c 3
 108 30 50 88 50 160 c 3
 50 232 108 290 180 290 c 3
 226 290 267 265 290 229 c 1
EndSplineSet
Substitution2: "latn aalt VI_-1" q.VI_
EndChar

StartChar: r.I
Encoding: 57617 57617 351
Width: 410
VWidth: 10
Flags: HMW
LayerCount: 2
Fore
SplineSet
280 30 m 16
 261 69 250 113 250 160 c 3
 250 207 261 251 280 290 c 9
 70 290 l 1
 70 280 70 40 70 30 c 3
EndSplineSet
EndChar

StartChar: r.I_
Encoding: 57649 57649 352
Width: 410
VWidth: 10
Flags: HMW
AnchorPoint: "top" 175 360 basechar 0
LayerCount: 2
Fore
SplineSet
380 30 m 3
 308 30 250 88 250 160 c 3
 250 207 261 251 280 290 c 9
 70 290 l 1
 70 280 70 40 70 30 c 3
EndSplineSet
Substitution2: "latn aalt VI_-1" r.VI_
Substitution2: "latn aalt _I_-1" r._I_
EndChar

StartChar: r._I
Encoding: 57681 57681 353
Width: 410
VWidth: 10
Flags: HMW
AnchorPoint: "top" 175 360 basechar 0
LayerCount: 2
Fore
SplineSet
280 30 m 16
 261 69 250 113 250 160 c 3
 250 207 261 251 280 290 c 9
 70 290 l 1
 70 280 70 140 70 130 c 3
 70 75 25 30 -30 30 c 3
EndSplineSet
Substitution2: "latn aalt _I_-1" r._I_
EndChar

StartChar: r.VI
Encoding: 57745 57745 354
Width: 410
VWidth: 10
Flags: HMW
AnchorPoint: "top" 175 360 basechar 0
LayerCount: 2
Fore
SplineSet
-30 290 m 3
 -20 290 159 290 280 290 c 17
 261 251 250 207 250 160 c 3
 250 113 261 69 280 30 c 8
EndSplineSet
Substitution2: "latn aalt VI_-1" r.VI_
EndChar

StartChar: r.VI_
Encoding: 57777 57777 355
Width: 410
VWidth: 10
Flags: HMW
AnchorPoint: "top" 175 360 basechar 0
LayerCount: 2
Fore
SplineSet
-30 290 m 3
 -20 290 159 290 280 290 c 17
 261 251 250 207 250 160 c 3
 250 88 308 30 380 30 c 0
EndSplineSet
EndChar

StartChar: t.I
Encoding: 57619 57619 356
Width: 350
VWidth: 0
Flags: HMW
LayerCount: 2
Fore
SplineSet
50 290 m 3
 70 290 230 290 240 290 c 9
90 510 m 3
 90 500 90 170 90 160 c 3
 90 88 148 30 220 30 c 3
 230 30 230 30 240 30 c 0
EndSplineSet
EndChar

StartChar: t.I_
Encoding: 57651 57651 357
Width: 350
VWidth: 0
Flags: HMW
AnchorPoint: "top" 185 540 basechar 0
LayerCount: 2
Fore
SplineSet
50 290 m 3
 70 290 230 290 240 290 c 9
320 30 m 3
 310 30 230 30 220 30 c 3
 148 30 90 88 90 160 c 3
 90 170 90 500 90 510 c 3
EndSplineSet
Substitution2: "latn aalt VI_-1" t.VI_
Substitution2: "latn aalt _I_-1" t._I_
EndChar

StartChar: t._I
Encoding: 57683 57683 358
Width: 350
VWidth: 0
Flags: HMW
AnchorPoint: "top" 185 540 basechar 0
LayerCount: 2
Fore
SplineSet
50 290 m 3
 70 290 230 290 240 290 c 9
-30 30 m 3
 -10 30 -20 30 -10 30 c 3
 45 30 90 75 90 130 c 11
 90 510 l 3
90 160 m 3
 90 88 148 30 220 30 c 3
 230 30 230 30 240 30 c 3
EndSplineSet
Substitution2: "latn aalt _I_-1" t._I_
EndChar

StartChar: t.VI
Encoding: 57747 57747 359
Width: 350
VWidth: 0
Flags: HMW
AnchorPoint: "top" 185 540 basechar 0
LayerCount: 2
Fore
SplineSet
-30 290 m 3
 -10 290 230 290 240 290 c 9
90 510 m 3
 90 500 90 170 90 160 c 3
 90 88 148 30 220 30 c 3
 230 30 230 30 240 30 c 0
EndSplineSet
Substitution2: "latn aalt VI_-1" t.VI_
EndChar

StartChar: t.VI_
Encoding: 57779 57779 360
Width: 350
VWidth: 0
Flags: HMW
AnchorPoint: "top" 185 540 basechar 0
LayerCount: 2
Fore
SplineSet
-30 290 m 3
 -10 290 230 290 240 290 c 9
320 30 m 3
 310 30 230 30 220 30 c 3
 148 30 90 88 90 160 c 3
 90 170 90 500 90 510 c 3
EndSplineSet
EndChar

StartChar: u.I
Encoding: 57620 57620 361
Width: 420
VWidth: 0
Flags: HMW
LayerCount: 2
Fore
SplineSet
290 30 m 3
 290 104 290 270 290 290 c 0
290 140 m 19
 290 79 241 30 180 30 c 3
 119 30 70 79 70 140 c 11
 70 198 70 270 70 290 c 0
EndSplineSet
EndChar

StartChar: u.I_
Encoding: 57652 57652 362
Width: 420
VWidth: 0
Flags: HMW
AnchorPoint: "top" 180 360 basechar 0
LayerCount: 2
Fore
SplineSet
290 290 m 27
 290 130 l 3
 290 75 335 30 390 30 c 3
290 140 m 19
 290 79 241 30 180 30 c 3
 119 30 70 79 70 140 c 11
 70 198 70 270 70 290 c 0
EndSplineSet
Substitution2: "latn aalt VI_-1" u.VI_
Substitution2: "latn aalt _I_-1" u._I_
EndChar

StartChar: u._I
Encoding: 57684 57684 363
Width: 420
VWidth: 0
Flags: HMW
AnchorPoint: "top" 180 360 basechar 0
LayerCount: 2
Fore
SplineSet
70 130 m 3
 70 75 25 30 -30 30 c 3
290 30 m 3
 290 104 290 270 290 290 c 0
290 140 m 19
 290 79 241 30 180 30 c 3
 119 30 70 79 70 140 c 11
 70 198 70 270 70 290 c 0
EndSplineSet
Substitution2: "latn aalt _I_-1" u._I_
EndChar

StartChar: u.VI
Encoding: 57748 57748 364
Width: 420
VWidth: 0
Flags: HMW
AnchorPoint: "top" 180 360 basechar 0
LayerCount: 2
Fore
SplineSet
-30 290 m 3
 -10 290 50 290 70 290 c 1
 70 270 70 198 70 140 c 19
 70 79 119 30 180 30 c 3
 241 30 290 79 290 140 c 8
290 30 m 3
 290 104 290 270 290 290 c 0
EndSplineSet
Substitution2: "latn aalt VI_-1" u.VI_
EndChar

StartChar: u.VI_
Encoding: 57780 57780 365
Width: 420
VWidth: 0
Flags: HMW
AnchorPoint: "top" 180 360 basechar 0
LayerCount: 2
Fore
SplineSet
290 290 m 27
 290 130 l 3
 290 75 335 30 390 30 c 3
-30 290 m 19
 -10 290 50 290 70 290 c 1
 70 270 70 198 70 140 c 19
 70 79 119 30 180 30 c 3
 241 30 290 79 290 140 c 11
EndSplineSet
EndChar

StartChar: w.I
Encoding: 57622 57622 366
Width: 600
VWidth: 0
Flags: HMW
LayerCount: 2
Fore
SplineSet
50 290 m 0
 60 270 170 50 180 30 c 1
 270 208 l 1
 360 30 l 1
 370 50 480 270 490 290 c 0
EndSplineSet
EndChar

StartChar: w.IV
Encoding: 57654 57654 367
Width: 600
VWidth: 0
Flags: HMW
AnchorPoint: "top" 270 360 basechar 0
LayerCount: 2
Fore
SplineSet
570 290 m 3
 560 290 572 290 552 290 c 3
 513 290 478 267 462 234 c 0
 360 30 l 1
 270 208 l 1
 180 30 l 1
 170 50 60 270 50 290 c 0
EndSplineSet
Substitution2: "latn aalt VIV-1" w.VIV
Substitution2: "latn aalt _IV-1" w._IV
EndChar

StartChar: w._IV
Encoding: 57718 57718 368
Width: 600
VWidth: 0
Flags: HMW
AnchorPoint: "top" 270 360 basechar 0
LayerCount: 2
Fore
SplineSet
-30 30 m 3
 18 30 59 65 68 110 c 0
 89 213 l 1
 180 30 l 1
 270 208 l 1
 360 30 l 1
 462 234 l 0
 478 267 513 290 552 290 c 3
 572 290 560 290 570 290 c 3
EndSplineSet
EndChar

StartChar: x.I
Encoding: 57623 57623 369
Width: 420
VWidth: 0
Flags: HMW
LayerCount: 2
Fore
SplineSet
50 290 m 0
 60 280 300 40 310 30 c 0
50 30 m 0
 60 40 300 280 310 290 c 0
EndSplineSet
EndChar

StartChar: x.I_
Encoding: 57655 57655 370
Width: 420
VWidth: 0
Flags: HMW
AnchorPoint: "top" 180 360 basechar 0
LayerCount: 2
Fore
SplineSet
390 30 m 3
 380 30 372 30 352 30 c 3
 324 30 299 41 281 59 c 0
 50 290 l 0
50 30 m 0
 60 40 300 280 310 290 c 0
EndSplineSet
Substitution2: "latn aalt VI_-1" x.VI_
Substitution2: "latn aalt _I_-1" x._I_
EndChar

StartChar: x._I_
Encoding: 57719 57719 371
Width: 420
VWidth: 0
Flags: HMW
AnchorPoint: "top" 180 360 basechar 0
LayerCount: 2
Fore
SplineSet
-30 30 m 3
 -20 30 -12 30 8 30 c 3
 36 30 61 41 79 59 c 0
 310 290 l 0
390 30 m 3
 380 30 372 30 352 30 c 3
 324 30 299 41 281 59 c 0
 50 290 l 0
EndSplineSet
EndChar

StartChar: x.VI
Encoding: 57751 57751 372
Width: 420
VWidth: 0
Flags: HMW
AnchorPoint: "top" 180 360 basechar 0
LayerCount: 2
Fore
SplineSet
-30 290 m 27
 50 290 l 17
 60 280 300 40 310 30 c 0
50 30 m 0
 60 40 300 280 310 290 c 0
EndSplineSet
Substitution2: "latn aalt VI_-1" x.VI_
EndChar

StartChar: y.I
Encoding: 57624 57624 373
Width: 420
VWidth: 0
Flags: HMW
LayerCount: 2
Fore
SplineSet
290 290 m 27
 290 118 290 -130 290 -150 c 3
 290 -211 241 -260 180 -260 c 3
 150 -260 123 -249 100 -226 c 1
70 290 m 3
 70 270 70 198 70 140 c 19
 70 79 119 30 180 30 c 3
 226 30 267 55 290 91 c 0
EndSplineSet
EndChar

StartChar: z.I
Encoding: 57625 57625 374
Width: 420
VWidth: 0
Flags: HMW
LayerCount: 2
Fore
SplineSet
50 290 m 3
 60 290 280 290 290 290 c 1
 279 264 191 56 180 30 c 1
 241 30 290 -19 290 -80 c 11
 290 -107 290 -130 290 -150 c 3
 290 -211 241 -260 180 -260 c 3
 150 -260 123 -249 100 -226 c 0
EndSplineSet
EndChar

StartChar: y.VI
Encoding: 57752 57752 375
Width: 420
VWidth: 0
Flags: HMW
AnchorPoint: "top" 180 360 basechar 0
LayerCount: 2
Fore
SplineSet
290 290 m 27
 290 118 290 -130 290 -150 c 3
 290 -211 241 -260 180 -260 c 3
 150 -260 123 -249 100 -226 c 1
-30 290 m 3
 -10 290 50 290 70 290 c 1
 70 270 70 198 70 140 c 19
 70 79 119 30 180 30 c 3
 226 30 267 55 290 91 c 0
EndSplineSet
Substitution2: "latn aalt VI_-1" y.VI_
EndChar

StartChar: z.VI
Encoding: 57753 57753 376
Width: 420
VWidth: 0
Flags: HMW
AnchorPoint: "top" 170 360 basechar 0
LayerCount: 2
Fore
SplineSet
-20 290 m 3
 -10 290 280 290 290 290 c 1
 279 264 191 56 180 30 c 1
 241 30 290 -19 290 -80 c 11
 290 -107 290 -130 290 -150 c 3
 290 -211 241 -260 180 -260 c 3
 150 -260 123 -249 100 -226 c 0
EndSplineSet
Substitution2: "latn aalt VI_-1" z.VI_
EndChar

StartChar: uni1D43
Encoding: 7491 7491 381
Width: 350
VWidth: 0
Flags: HMW
LayerCount: 2
Fore
SplineSet
230 340 m 0
 212 322 187 310 160 310 c 3
 105 310 60 355 60 410 c 3
 60 465 105 510 160 510 c 3
 188 510 212 498 230 480 c 0
240 510 m 3
 240 500 240 320 240 310 c 0
EndSplineSet
EndChar

StartChar: uni1D52
Encoding: 7506 7506 382
Width: 370
VWidth: 10
Flags: HMW
LayerCount: 2
Fore
SplineSet
60 410 m 0
 60 465 105 510 160 510 c 0
 215 510 260 465 260 410 c 0
 260 355 215 310 160 310 c 0
 105 310 60 355 60 410 c 0
EndSplineSet
EndChar

StartChar: germandbls.I
Encoding: 57631 57631 395
Width: 480
VWidth: 0
Flags: HMW
LayerCount: 2
Fore
SplineSet
170 50 m 0
 190 37 214 30 240 30 c 3
 312 30 370 88 370 160 c 3
 370 232 312 290 240 290 c 1
 271 312 290 350 290 390 c 3
 290 456 236 510 170 510 c 3
 115 510 70 465 70 410 c 3
 70 400 70 -270 70 -280 c 0
EndSplineSet
EndChar

StartChar: germandbls.I_
Encoding: 57663 57663 396
Width: 480
VWidth: 0
Flags: HMW
AnchorPoint: "top" 170 540 basechar 0
LayerCount: 2
Fore
SplineSet
450 30 m 3
 407 30 370 58 356 96 c 0
170 50 m 0
 190 37 214 30 240 30 c 3
 312 30 370 88 370 160 c 3
 370 232 312 290 240 290 c 1
 271 312 290 350 290 390 c 3
 290 456 236 510 170 510 c 3
 115 510 70 465 70 410 c 3
 70 400 70 -270 70 -280 c 0
EndSplineSet
Substitution2: "latn aalt VI_-1" germandbls.VI_
Substitution2: "latn aalt _I_-1" germandbls._I_
EndChar

StartChar: germandbls._I
Encoding: 57695 57695 397
Width: 480
VWidth: 0
Flags: HMW
AnchorPoint: "top" 170 540 basechar 0
LayerCount: 2
Fore
SplineSet
70 130 m 3
 70 75 25 30 -30 30 c 3
170 50 m 0
 190 37 214 30 240 30 c 3
 312 30 370 88 370 160 c 3
 370 232 312 290 240 290 c 1
 271 312 290 350 290 390 c 3
 290 456 236 510 170 510 c 3
 115 510 70 465 70 410 c 3
 70 400 70 -270 70 -280 c 0
EndSplineSet
Substitution2: "latn aalt _I_-1" germandbls._I_
EndChar

StartChar: germandbls._I_
Encoding: 57727 57727 398
Width: 480
VWidth: 0
Flags: HMW
AnchorPoint: "top" 170 540 basechar 0
LayerCount: 2
Fore
SplineSet
70 130 m 3
 70 75 25 30 -30 30 c 3
450 30 m 3
 407 30 370 58 356 96 c 0
170 50 m 0
 190 37 214 30 240 30 c 3
 312 30 370 88 370 160 c 3
 370 232 312 290 240 290 c 1
 271 312 290 350 290 390 c 3
 290 456 236 510 170 510 c 3
 115 510 70 465 70 410 c 3
 70 400 70 -270 70 -280 c 0
EndSplineSet
EndChar

StartChar: germandbls.VI
Encoding: 57759 57759 399
Width: 480
VWidth: 0
Flags: HMW
AnchorPoint: "top" 170 540 basechar 0
LayerCount: 2
Fore
SplineSet
-30 290 m 3
 25 290 70 245 70 190 c 3
170 50 m 0
 190 37 214 30 240 30 c 3
 312 30 370 88 370 160 c 3
 370 232 312 290 240 290 c 1
 271 312 290 350 290 390 c 3
 290 456 236 510 170 510 c 3
 115 510 70 465 70 410 c 3
 70 400 70 -270 70 -280 c 0
EndSplineSet
Substitution2: "latn aalt VI_-1" germandbls.VI_
EndChar

StartChar: germandbls.VI_
Encoding: 57791 57791 400
Width: 480
VWidth: 0
Flags: HMW
AnchorPoint: "top" 170 540 basechar 0
LayerCount: 2
Fore
SplineSet
-30 290 m 3
 25 290 70 245 70 190 c 3
450 30 m 3
 407 30 370 58 356 96 c 0
170 50 m 0
 190 37 214 30 240 30 c 3
 312 30 370 88 370 160 c 3
 370 232 312 290 240 290 c 1
 271 312 290 350 290 390 c 3
 290 456 236 510 170 510 c 3
 115 510 70 465 70 410 c 3
 70 400 70 -270 70 -280 c 0
EndSplineSet
EndChar

StartChar: circumflexcmb
Encoding: 770 770 401
Width: 0
VWidth: 10
Flags: HMW
AnchorPoint: "top" 0 360 mark 0
LayerCount: 2
Fore
SplineSet
80 420 m 1
 70 430 10 490 0 500 c 1
 -10 490 -70 430 -80 420 c 1
EndSplineSet
EndChar

StartChar: gravecomb
Encoding: 768 768 402
Width: 0
VWidth: 0
Flags: HMW
AnchorPoint: "top" 0 360 mark 0
LayerCount: 2
Fore
SplineSet
30 410 m 0
 20 420 -31 471 -70 510 c 24
EndSplineSet
EndChar

StartChar: ringcmb
Encoding: 778 778 403
Width: 0
VWidth: 0
Flags: HMW
AnchorPoint: "top" 0 360 mark 0
LayerCount: 2
Fore
SplineSet
-60 450 m 3
 -60 483 -33 510 0 510 c 3
 33 510 60 483 60 450 c 3
 60 417 33 390 0 390 c 3
 -33 390 -60 417 -60 450 c 3
EndSplineSet
EndChar

StartChar: acutecomb
Encoding: 769 769 404
Width: 0
VWidth: 0
Flags: HMW
AnchorPoint: "top" 0 360 mark 0
LayerCount: 2
Fore
SplineSet
-30 410 m 0
 -20 420 31 471 70 510 c 24
EndSplineSet
EndChar

StartChar: tildecomb
Encoding: 771 771 406
Width: 0
VWidth: 0
Flags: HMW
AnchorPoint: "top" 0 360 mark 0
LayerCount: 2
Fore
SplineSet
110 426 m 0
 98 446 76 460 50 460 c 0
 30 460 13 453 0 440 c 0
 -13 427 -31 420 -50 420 c 0
 -76 420 -98 434 -110 454 c 0
EndSplineSet
EndChar

StartChar: dieresiscmb
Encoding: 776 776 407
Width: 0
VWidth: 396
Flags: HMW
AnchorPoint: "top" 0 360 mark 0
LayerCount: 2
Fore
SplineSet
-70 440 m 0,0,1
70 440 m 0,0,1
EndSplineSet
EndChar

StartChar: macroncmb
Encoding: 772 772 408
Width: 0
VWidth: 426
Flags: HMW
AnchorPoint: "top" 0 360 mark 0
LayerCount: 2
Fore
SplineSet
-90 440 m 27
 -20 440 80 440 90 440 c 3
EndSplineSet
EndChar

StartChar: A.I
Encoding: 57344 57344 409
Width: 480
VWidth: 10
Flags: HMW
LayerCount: 2
Fore
SplineSet
350 160 m 3
 350 88 292 30 220 30 c 3
 126 30 50 138 50 270 c 3
 50 402 126 510 220 510 c 3
 292 510 350 452 350 380 c 3
 350 226 350 166 350 30 c 24
EndSplineSet
EndChar

StartChar: B.I
Encoding: 57345 57345 410
Width: 440
VWidth: 10
Flags: HMW
LayerCount: 2
Fore
SplineSet
200 290 m 3
 261 290 310 339 310 400 c 3
 310 461 261 510 200 510 c 8
 70 510 l 1
 70 500 70 40 70 30 c 1
 200 30 l 0
 272 30 330 88 330 160 c 3
 330 232 272 290 200 290 c 9
 70 290 l 1
EndSplineSet
EndChar

StartChar: C.I
Encoding: 57346 57346 411
Width: 440
VWidth: 10
Flags: HMW
LayerCount: 2
Fore
SplineSet
350 425 m 1
 319 477 272 510 220 510 c 3
 126 510 50 402 50 270 c 3
 50 138 126 30 220 30 c 3
 272 30 319 63 350 115 c 1
EndSplineSet
EndChar

StartChar: D.I
Encoding: 57347 57347 412
Width: 460
VWidth: 10
Flags: HMW
LayerCount: 2
Fore
SplineSet
180 30 m 3
 274 30 350 138 350 270 c 3
 350 402 274 510 180 510 c 11
 70 510 l 1
 70 500 70 40 70 30 c 1
 180 30 l 3
EndSplineSet
EndChar

StartChar: E.I
Encoding: 57348 57348 413
Width: 420
VWidth: 0
Flags: HMW
LayerCount: 2
Fore
SplineSet
330 30 m 27
 70 30 l 1
 70 40 70 500 70 510 c 1
 70 510 229 510 330 510 c 27
70 290 m 27
 156 290 204 290 290 290 c 27
EndSplineSet
EndChar

StartChar: F.I
Encoding: 57349 57349 414
Width: 420
VWidth: 0
Flags: HMW
LayerCount: 2
Fore
SplineSet
70 30 m 3
 70 40 70 500 70 510 c 1
 70 510 229 510 330 510 c 24
70 290 m 24
 156 290 204 290 290 290 c 24
EndSplineSet
EndChar

StartChar: G.I
Encoding: 57350 57350 415
Width: 480
VWidth: 10
Flags: HMW
LayerCount: 2
Fore
SplineSet
250 240 m 24
 297 240 323 240 370 240 c 17
 370 124 303 30 220 30 c 3
 126 30 50 138 50 270 c 3
 50 402 126 510 220 510 c 3
 272 510 319 477 350 425 c 1
EndSplineSet
EndChar

StartChar: H.I
Encoding: 57351 57351 416
Width: 460
VWidth: 0
Flags: HMW
LayerCount: 2
Fore
SplineSet
330 510 m 3
 330 500 330 40 330 30 c 0
70 290 m 27
 171 290 229 290 330 290 c 24
70 510 m 3
 70 500 70 40 70 30 c 3
EndSplineSet
EndChar

StartChar: I.I
Encoding: 57352 57352 417
Width: 280
VWidth: 0
Flags: HMW
LayerCount: 2
Fore
SplineSet
110 510 m 3
 110 500 110 40 110 30 c 1
EndSplineSet
EndChar

StartChar: J.I
Encoding: 57353 57353 418
Width: 440
VWidth: 0
Flags: HMW
LayerCount: 2
Fore
SplineSet
310 510 m 3
 310 500 310 190 310 180 c 3
 310 97 243 30 160 30 c 3
 117 30 77 48 50 78 c 1
EndSplineSet
EndChar

StartChar: K.I
Encoding: 57354 57354 419
Width: 470
VWidth: 10
Flags: HMW
LayerCount: 2
Fore
SplineSet
100 290 m 1
 360 30 l 0
70 260 m 1
 320 510 l 0
70 30 m 3
 70 40 70 500 70 510 c 0
EndSplineSet
EndChar

StartChar: L.I
Encoding: 57355 57355 420
Width: 440
VWidth: 0
Flags: HMW
LayerCount: 2
Fore
SplineSet
330 30 m 3
 70 30 l 1
 70 40 70 500 70 510 c 3
EndSplineSet
EndChar

StartChar: M.I
Encoding: 57356 57356 421
Width: 720
VWidth: 0
Flags: HMW
LayerCount: 2
Fore
SplineSet
590 30 m 27
 590 166 590 244 590 380 c 19
 590 452 532 510 460 510 c 0
 388 510 330 452 330 380 c 1
 330 452 272 510 200 510 c 0
 128 510 70 452 70 380 c 0
330 30 m 27
 330 166 330 244 330 380 c 24
70 30 m 27
 70 217 70 323 70 510 c 24
EndSplineSet
EndChar

StartChar: N.I
Encoding: 57357 57357 422
Width: 500
VWidth: 10
Flags: HMW
LayerCount: 2
Fore
SplineSet
370 30 m 24
 370 163 370 216 370 370 c 3
 370 453 303 520 220 520 c 0
 137 520 70 453 70 370 c 0
70 30 m 3
 70 40 70 323 70 510 c 24
EndSplineSet
EndChar

StartChar: O.I
Encoding: 57358 57358 423
Width: 500
VWidth: 0
Flags: HMW
LayerCount: 2
Fore
SplineSet
50 270 m 3
 50 402 126 510 220 510 c 3
 314 510 390 402 390 270 c 3
 390 138 314 30 220 30 c 3
 126 30 50 138 50 270 c 3
EndSplineSet
EndChar

StartChar: P.I
Encoding: 57359 57359 424
Width: 440
VWidth: 10
Flags: HMW
LayerCount: 2
Fore
SplineSet
70 30 m 1
 70 40 70 500 70 510 c 1
 200 510 l 0
 272 510 330 452 330 380 c 3
 330 308 272 250 200 250 c 24
 70 250 l 1
EndSplineSet
EndChar

StartChar: Q.I
Encoding: 57360 57360 425
Width: 500
VWidth: 0
Flags: HMW
LayerCount: 2
Fore
SplineSet
50 270 m 3
 50 402 126 510 220 510 c 3
 314 510 390 402 390 270 c 3
 390 138 314 30 220 30 c 3
 126 30 50 138 50 270 c 3
220 200 m 0
 390 30 l 1
EndSplineSet
EndChar

StartChar: R.I
Encoding: 57361 57361 426
Width: 440
VWidth: 10
Flags: HMW
LayerCount: 2
Fore
SplineSet
70 30 m 3
 70 40 70 500 70 510 c 1
 200 510 l 3
 272 510 330 452 330 380 c 3
 330 308 272 250 200 250 c 27
 70 250 l 0
110 250 m 0
 160 200 300 60 330 30 c 0
EndSplineSet
EndChar

StartChar: S.I
Encoding: 57362 57362 427
Width: 410
VWidth: 0
Flags: HMW
LayerCount: 2
Fore
SplineSet
50 110 m 0
 50 110 80 30 170 30 c 3
 242 30 300 88 300 160 c 3
 300 232 242 290 170 290 c 3
 109 290 60 339 60 400 c 3
 60 461 109 510 170 510 c 3
 237 510 265 455 265 455 c 0
EndSplineSet
EndChar

StartChar: T.I
Encoding: 57363 57363 428
Width: 460
VWidth: 0
Flags: HMW
LayerCount: 2
Fore
SplineSet
200 510 m 3
 200 500 200 40 200 30 c 3
50 510 m 27
 167 510 340 510 350 510 c 3
EndSplineSet
EndChar

StartChar: U.I
Encoding: 57364 57364 429
Width: 460
VWidth: 10
Flags: HMW
LayerCount: 2
Fore
SplineSet
70 510 m 3
 70 500 70 170 70 160 c 3
 70 88 128 30 200 30 c 3
 272 30 330 88 330 160 c 3
 330 170 330 500 330 510 c 3
EndSplineSet
EndChar

StartChar: V.I
Encoding: 57365 57365 430
Width: 480
VWidth: 0
Flags: HMW
LayerCount: 2
Fore
SplineSet
370 510 m 0
 360 480 220 60 210 30 c 1
 200 60 60 480 50 510 c 0
EndSplineSet
EndChar

StartChar: W.I
Encoding: 57366 57366 431
Width: 630
VWidth: 0
Flags: HMW
LayerCount: 2
Fore
SplineSet
50 510 m 0
 60 480 200 60 210 30 c 1
 285 255 l 1
 360 30 l 1
 370 60 510 480 520 510 c 0
EndSplineSet
EndChar

StartChar: X.I
Encoding: 57367 57367 432
Width: 480
VWidth: 10
Flags: HMW
LayerCount: 2
Fore
SplineSet
370 30 m 0
 350 60 70 480 50 510 c 0
50 30 m 0
 70 60 350 480 370 510 c 0
EndSplineSet
EndChar

StartChar: Y.I
Encoding: 57368 57368 433
Width: 460
VWidth: 10
Flags: HMW
LayerCount: 2
Fore
SplineSet
210 270 m 0
 50 510 l 8
50 30 m 0
 70 60 350 480 370 510 c 0
EndSplineSet
EndChar

StartChar: Z.I
Encoding: 57369 57369 434
Width: 480
VWidth: 10
Flags: HMW
LayerCount: 2
Fore
SplineSet
370 30 m 3
 322 30 175 30 50 30 c 1
 70 60 350 480 370 510 c 1
 322 510 175 510 50 510 c 24
EndSplineSet
EndChar

StartChar: A.I_
Encoding: 57376 57376 435
Width: 480
VWidth: 0
Flags: HMW
AnchorPoint: "top" 220 540 basechar 0
LayerCount: 2
Fore
SplineSet
350 160 m 3
 350 88 292 30 220 30 c 3
 126 30 50 138 50 270 c 3
 50 402 126 510 220 510 c 3
 292 510 350 452 350 380 c 3
 350 226 350 228 350 130 c 19
 350 75 395 30 450 30 c 3
EndSplineSet
EndChar

StartChar: B.I_
Encoding: 57377 57377 436
Width: 440
VWidth: 0
Flags: HMW
AnchorPoint: "top" 200 540 basechar 0
LayerCount: 2
Fore
SplineSet
410 30 m 3
 367 30 330 58 316 96 c 0
200 290 m 3
 261 290 310 339 310 400 c 3
 310 461 261 510 200 510 c 8
 70 510 l 1
 70 500 70 40 70 30 c 1
 200 30 l 0
 272 30 330 88 330 160 c 3
 330 232 272 290 200 290 c 9
 70 290 l 1
EndSplineSet
EndChar

StartChar: C.I_
Encoding: 57378 57378 437
Width: 440
VWidth: 0
Flags: HMW
AnchorPoint: "top" 220 540 basechar 0
LayerCount: 2
Fore
SplineSet
410 30 m 7
 366 30 230 30 220 30 c 3
 126 30 50 138 50 270 c 3
 50 402 126 510 220 510 c 3
 272 510 319 477 350 425 c 1
EndSplineSet
EndChar

StartChar: D.I_
Encoding: 57379 57379 438
Width: 460
VWidth: 10
Flags: HMW
AnchorPoint: "top" 200 540 basechar 0
LayerCount: 2
Fore
SplineSet
430 30 m 3
 427 30 413 30 410 30 c 3
 360 30 318 68 311 116 c 0
180 30 m 3
 274 30 350 138 350 270 c 3
 350 402 274 510 180 510 c 11
 70 510 l 1
 70 500 70 40 70 30 c 1
 180 30 l 3
EndSplineSet
EndChar

StartChar: E.I_
Encoding: 57380 57380 439
Width: 420
VWidth: 0
Flags: HMW
AnchorPoint: "top" 200 540 basechar 0
LayerCount: 2
Fore
SplineSet
390 30 m 24
 70 30 l 1
 70 40 70 500 70 510 c 1
 70 510 229 510 330 510 c 27
290 290 m 27
 204 290 156 290 70 290 c 27
EndSplineSet
EndChar

StartChar: G.I_
Encoding: 57382 57382 440
Width: 480
VWidth: 0
Flags: HMW
AnchorPoint: "top" 220 540 basechar 0
LayerCount: 2
Fore
SplineSet
450 30 m 3
 395 30 350 75 350 130 c 0
250 240 m 24
 297 240 323 240 370 240 c 17
 370 124 303 30 220 30 c 3
 126 30 50 138 50 270 c 3
 50 402 126 510 220 510 c 3
 272 510 319 477 350 425 c 1
EndSplineSet
EndChar

StartChar: H.I_
Encoding: 57383 57383 447
Width: 460
VWidth: 0
Flags: HMW
AnchorPoint: "top" 200 540 basechar 0
LayerCount: 2
Fore
SplineSet
330 510 m 3
 330 500 330 140 330 130 c 3
 330 75 375 30 430 30 c 3
70 290 m 27
 171 290 229 290 330 290 c 24
70 510 m 3
 70 500 70 40 70 30 c 3
EndSplineSet
EndChar

StartChar: I.I_
Encoding: 57384 57384 448
Width: 280
VWidth: 0
Flags: HMW
AnchorPoint: "top" 110 540 basechar 0
LayerCount: 2
Fore
SplineSet
250 30 m 27
 234 30 230 30 210 30 c 3
 155 30 110 75 110 130 c 3
 110 140 110 500 110 510 c 3
EndSplineSet
EndChar

StartChar: J.I_
Encoding: 57385 57385 449
Width: 440
VWidth: 10
Flags: HMW
AnchorPoint: "top" 160 540 basechar 0
LayerCount: 2
Fore
SplineSet
410 30 m 3
 406 30 405 30 400 30 c 3
 350 30 308 68 301 116 c 0
310 510 m 3
 310 500 310 190 310 180 c 3
 310 97 243 30 160 30 c 3
 117 30 77 48 50 78 c 1
EndSplineSet
EndChar

StartChar: K.I_
Encoding: 57386 57386 450
Width: 470
VWidth: 10
Flags: HMW
AnchorPoint: "top" 220 540 basechar 0
LayerCount: 2
Fore
SplineSet
440 30 m 3
 430 30 422 30 402 30 c 3
 374 30 349 41 331 59 c 0
 100 290 l 0
70 260 m 1
 320 510 l 0
70 30 m 3
 70 40 70 500 70 510 c 0
EndSplineSet
EndChar

StartChar: L.I_
Encoding: 57387 57387 451
Width: 440
VWidth: 0
Flags: HMW
AnchorPoint: "top" 200 540 basechar 0
LayerCount: 2
Fore
SplineSet
410 30 m 0
 70 30 l 1
 70 40 70 500 70 510 c 3
EndSplineSet
EndChar

StartChar: M.I_
Encoding: 57388 57388 452
Width: 720
VWidth: 0
Flags: HMW
AnchorPoint: "top" 330 540 basechar 0
LayerCount: 2
Fore
SplineSet
690 30 m 0
 635 30 590 75 590 130 c 3
 590 140 590 370 590 380 c 3
 590 452 532 510 460 510 c 0
 388 510 330 452 330 380 c 1
 330 452 272 510 200 510 c 0
 128 510 70 452 70 380 c 0
330 30 m 27
 330 166 330 244 330 380 c 24
70 30 m 27
 70 217 70 323 70 510 c 24
EndSplineSet
EndChar

StartChar: N.I_
Encoding: 57389 57389 453
Width: 500
VWidth: 10
Flags: HMW
AnchorPoint: "top" 220 540 basechar 0
LayerCount: 2
Fore
SplineSet
470 30 m 3
 415 30 370 75 370 130 c 3
 370 140 370 360 370 370 c 3
 370 453 303 520 220 520 c 0
 137 520 70 453 70 370 c 0
70 30 m 3
 70 40 70 323 70 510 c 24
EndSplineSet
EndChar

StartChar: O.I_
Encoding: 57390 57390 454
Width: 500
VWidth: 0
Flags: HMW
AnchorPoint: "top" 220 540 basechar 0
LayerCount: 2
Fore
SplineSet
470 30 m 3
 467 30 453 30 450 30 c 3
 400 30 358 68 351 116 c 0
50 270 m 3
 50 402 126 510 220 510 c 3
 314 510 390 402 390 270 c 3
 390 138 314 30 220 30 c 3
 126 30 50 138 50 270 c 3
EndSplineSet
EndChar

StartChar: Q.I_
Encoding: 57392 57392 455
Width: 500
VWidth: 0
Flags: HMW
AnchorPoint: "top" 220 540 basechar 0
LayerCount: 2
Fore
SplineSet
470 30 m 3
 460 30 452 30 432 30 c 3
 404 30 379 41 361 59 c 0
 220 200 l 0
50 270 m 3
 50 402 126 510 220 510 c 3
 314 510 390 402 390 270 c 3
 390 138 314 30 220 30 c 3
 126 30 50 138 50 270 c 3
EndSplineSet
EndChar

StartChar: R.I_
Encoding: 57393 57393 456
Width: 440
VWidth: 10
Flags: HMW
AnchorPoint: "top" 200 540 basechar 0
LayerCount: 2
Fore
SplineSet
410 30 m 3
 400 30 392 30 372 30 c 3
 344 30 319 41 301 59 c 0
 110 250 l 0
70 30 m 3
 70 40 70 500 70 510 c 1
 200 510 l 3
 272 510 330 452 330 380 c 3
 330 308 272 250 200 250 c 27
 70 250 l 0
EndSplineSet
EndChar

StartChar: S.I_
Encoding: 57394 57394 457
Width: 410
VWidth: 0
Flags: HMW
AnchorPoint: "top" 170 540 basechar 0
LayerCount: 2
Fore
SplineSet
380 30 m 3
 337 30 300 58 286 96 c 0
50 110 m 0
 50 110 80 30 170 30 c 3
 242 30 300 88 300 160 c 3
 300 232 242 290 170 290 c 3
 109 290 60 339 60 400 c 3
 60 461 109 510 170 510 c 3
 237 510 265 455 265 455 c 0
EndSplineSet
EndChar

StartChar: U.I_
Encoding: 57396 57396 458
Width: 460
VWidth: 0
Flags: HMW
AnchorPoint: "top" 200 540 basechar 0
LayerCount: 2
Fore
SplineSet
330 510 m 3
 330 500 330 140 330 130 c 3
 330 75 375 30 430 30 c 3
70 510 m 3
 70 500 70 170 70 160 c 3
 70 88 128 30 200 30 c 3
 272 30 330 88 330 160 c 3
EndSplineSet
EndChar

StartChar: X.I_
Encoding: 57399 57399 459
Width: 480
VWidth: 10
Flags: HMW
AnchorPoint: "top" 210 540 basechar 0
LayerCount: 2
Fore
SplineSet
450 30 m 3
 397 30 351 58 325 97 c 0
 50 510 l 0
50 30 m 0
 70 60 350 480 370 510 c 0
EndSplineSet
EndChar

StartChar: Z.I_
Encoding: 57401 57401 460
Width: 480
VWidth: 10
Flags: HMW
AnchorPoint: "top" 210 540 basechar 0
LayerCount: 2
Fore
SplineSet
450 30 m 3
 402 30 175 30 50 30 c 1
 70 60 350 480 370 510 c 1
 322 510 175 510 50 510 c 24
EndSplineSet
EndChar

StartChar: a.scap.I
Encoding: 57408 57408 461
Width: 480
VWidth: 0
Flags: HMW
LayerCount: 2
Fore
SplineSet
350 30 m 24
 350 124 350 260 350 270 c 3
 350 342 292 400 220 400 c 3
 126 400 50 317 50 215 c 0
 50 113 126 30 220 30 c 3
 292 30 350 88 350 160 c 0
EndSplineSet
EndChar

StartChar: a.scap.I_
Encoding: 57440 57440 462
Width: 480
VWidth: 0
Flags: HMW
AnchorPoint: "top" 220 470 basechar 0
LayerCount: 2
Fore
SplineSet
450 30 m 3
 395 30 350 75 350 130 c 3
 350 140 350 260 350 270 c 3
 350 342 292 400 220 400 c 3
 126 400 50 317 50 215 c 0
 50 113 126 30 220 30 c 3
 292 30 350 88 350 160 c 0
EndSplineSet
EndChar

StartChar: e.scap.I
Encoding: 57412 57412 463
Width: 420
VWidth: 0
Flags: HMW
LayerCount: 2
Fore
SplineSet
330 30 m 24
 70 30 l 1
 70 40 70 390 70 400 c 1
 70 400 229 400 330 400 c 24
70 220 m 24
 156 220 204 220 290 220 c 24
EndSplineSet
EndChar

StartChar: e.scap.I_
Encoding: 57444 57444 464
Width: 420
VWidth: 0
Flags: HMW
AnchorPoint: "top" 200 470 basechar 0
LayerCount: 2
Fore
SplineSet
390 30 m 27
 70 30 l 1
 70 40 70 390 70 400 c 1
 70 400 229 400 330 400 c 24
70 220 m 24
 156 220 204 220 290 220 c 24
EndSplineSet
EndChar

StartChar: o.scap.I
Encoding: 57422 57422 465
Width: 500
VWidth: 0
Flags: HMW
LayerCount: 2
Fore
SplineSet
50 215 m 3
 50 317 126 400 220 400 c 3
 314 400 390 317 390 215 c 3
 390 113 314 30 220 30 c 3
 126 30 50 113 50 215 c 3
EndSplineSet
EndChar

StartChar: o.scap.I_
Encoding: 57454 57454 466
Width: 500
VWidth: 0
Flags: HMW
AnchorPoint: "top" 220 470 basechar 0
LayerCount: 2
Fore
SplineSet
470 30 m 3
 420 30 378 68 371 116 c 0
50 215 m 3
 50 317 126 400 220 400 c 3
 314 400 390 317 390 215 c 3
 390 113 314 30 220 30 c 3
 126 30 50 113 50 215 c 3
EndSplineSet
EndChar

StartChar: u.scap.I
Encoding: 57428 57428 467
Width: 460
VWidth: 0
Flags: HMW
LayerCount: 2
Fore
SplineSet
70 400 m 3
 70 390 70 170 70 160 c 3
 70 88 128 30 200 30 c 3
 272 30 330 88 330 160 c 3
 330 170 330 390 330 400 c 0
EndSplineSet
EndChar

StartChar: u.scap.I_
Encoding: 57460 57460 468
Width: 460
VWidth: 0
Flags: HMW
AnchorPoint: "top" 200 470 basechar 0
LayerCount: 2
Fore
SplineSet
330 400 m 3
 330 390 330 140 330 130 c 3
 330 75 375 30 430 30 c 3
70 400 m 3
 70 390 70 170 70 160 c 3
 70 88 128 30 200 30 c 3
 272 30 330 88 330 160 c 3
EndSplineSet
EndChar

StartChar: i.scap.I
Encoding: 57416 57416 469
Width: 280
VWidth: 0
Flags: HMW
LayerCount: 2
Fore
SplineSet
110 400 m 3
 110 390 110 40 110 30 c 1
EndSplineSet
EndChar

StartChar: i.scap.I_
Encoding: 57448 57448 470
Width: 280
VWidth: 0
Flags: HMW
AnchorPoint: "top" 110 470 basechar 0
LayerCount: 2
Fore
SplineSet
110 400 m 3
 110 390 110 140 110 130 c 3
 110 75 155 30 210 30 c 3
 230 30 234 30 250 30 c 27
EndSplineSet
EndChar

StartChar: n.scap.I
Encoding: 57421 57421 471
Width: 500
VWidth: 0
Flags: HMW
LayerCount: 2
Fore
SplineSet
70 250 m 3
 70 333 137 400 220 400 c 3
 303 400 370 333 370 250 c 3
 370 96 370 40 370 30 c 3
70 390 m 27
 70 250 70 40 70 30 c 0
EndSplineSet
EndChar

StartChar: n.scap.I_
Encoding: 57453 57453 472
Width: 500
VWidth: 10
Flags: HMW
AnchorPoint: "top" 220 470 basechar 0
LayerCount: 2
Fore
SplineSet
470 30 m 3
 415 30 370 75 370 130 c 3
 370 140 370 240 370 250 c 3
 370 333 303 400 220 400 c 3
 137 400 70 333 70 250 c 3
70 390 m 27
 70 250 70 40 70 30 c 0
EndSplineSet
EndChar

StartChar: y.scap.I
Encoding: 57432 57432 473
Width: 460
VWidth: 10
Flags: HMW
LayerCount: 2
Fore
SplineSet
210 215 m 0
 178 252 82 363 50 400 c 0
50 30 m 0
 82 67 338 363 370 400 c 0
EndSplineSet
EndChar
